<svg width="134" height="40" viewBox="0 0 134 40" fill="none" xmlns="http://www.w3.org/2000/svg">
<rect width="134" height="40" rx="6" fill="#222222"/>
<path d="M52.67 15L52.15 13.27H49.54L49.02 15H48.06L50.27 8.11H51.47L53.67 15H52.67ZM49.77 12.5H51.92L50.85 8.9L49.77 12.5ZM58.5524 9.73L56.7624 15H55.6524L53.8324 9.73H54.8324L56.2124 14.18L57.5824 9.73H58.5524ZM62.998 13.77C62.998 13.9833 63.0347 14.1433 63.108 14.25C63.1814 14.35 63.2914 14.4267 63.438 14.48L63.228 15.12C62.9547 15.0867 62.7347 15.01 62.568 14.89C62.4014 14.77 62.278 14.5833 62.198 14.33C61.8447 14.8567 61.3214 15.12 60.628 15.12C60.108 15.12 59.698 14.9733 59.398 14.68C59.098 14.3867 58.948 14.0033 58.948 13.53C58.948 12.97 59.148 12.54 59.548 12.24C59.9547 11.94 60.528 11.79 61.268 11.79H62.078V11.4C62.078 11.0267 61.988 10.76 61.808 10.6C61.628 10.44 61.3514 10.36 60.978 10.36C60.5914 10.36 60.118 10.4533 59.558 10.64L59.328 9.97C59.9814 9.73 60.588 9.61 61.148 9.61C61.768 9.61 62.2314 9.76333 62.538 10.07C62.8447 10.37 62.998 10.8 62.998 11.36V13.77ZM60.838 14.43C61.3647 14.43 61.778 14.1567 62.078 13.61V12.4H61.388C60.4147 12.4 59.928 12.76 59.928 13.48C59.928 13.7933 60.0047 14.03 60.158 14.19C60.3114 14.35 60.538 14.43 60.838 14.43ZM65.8075 9.73V15H64.8875V9.73H65.8075ZM65.3375 7.2C65.5308 7.2 65.6875 7.26 65.8075 7.38C65.9275 7.5 65.9875 7.65 65.9875 7.83C65.9875 8.01 65.9275 8.16 65.8075 8.28C65.6875 8.39333 65.5308 8.45 65.3375 8.45C65.1508 8.45 64.9975 8.39333 64.8775 8.28C64.7575 8.16 64.6975 8.01 64.6975 7.83C64.6975 7.65 64.7575 7.5 64.8775 7.38C64.9975 7.26 65.1508 7.2 65.3375 7.2ZM68.7598 15.12C68.4198 15.12 68.1498 15.02 67.9498 14.82C67.7564 14.6133 67.6598 14.3267 67.6598 13.96V7.61L68.5798 7.5V13.94C68.5798 14.0867 68.6031 14.1933 68.6498 14.26C68.7031 14.3267 68.7898 14.36 68.9098 14.36C69.0364 14.36 69.1498 14.34 69.2498 14.3L69.4898 14.94C69.2698 15.06 69.0264 15.12 68.7598 15.12ZM74.1406 13.77C74.1406 13.9833 74.1773 14.1433 74.2506 14.25C74.324 14.35 74.434 14.4267 74.5806 14.48L74.3706 15.12C74.0973 15.0867 73.8773 15.01 73.7106 14.89C73.544 14.77 73.4206 14.5833 73.3406 14.33C72.9873 14.8567 72.464 15.12 71.7706 15.12C71.2506 15.12 70.8406 14.9733 70.5406 14.68C70.2406 14.3867 70.0906 14.0033 70.0906 13.53C70.0906 12.97 70.2906 12.54 70.6906 12.24C71.0973 11.94 71.6706 11.79 72.4106 11.79H73.2206V11.4C73.2206 11.0267 73.1306 10.76 72.9506 10.6C72.7706 10.44 72.494 10.36 72.1206 10.36C71.734 10.36 71.2606 10.4533 70.7006 10.64L70.4706 9.97C71.124 9.73 71.7306 9.61 72.2906 9.61C72.9106 9.61 73.374 9.76333 73.6806 10.07C73.9873 10.37 74.1406 10.8 74.1406 11.36V13.77ZM71.9806 14.43C72.5073 14.43 72.9206 14.1567 73.2206 13.61V12.4H72.5306C71.5573 12.4 71.0706 12.76 71.0706 13.48C71.0706 13.7933 71.1473 14.03 71.3006 14.19C71.454 14.35 71.6806 14.43 71.9806 14.43ZM78.4401 9.61C79.0401 9.61 79.5167 9.85333 79.8701 10.34C80.2234 10.82 80.4001 11.4933 80.4001 12.36C80.4001 12.9067 80.3167 13.39 80.1501 13.81C79.9834 14.2233 79.7434 14.5467 79.4301 14.78C79.1167 15.0067 78.7501 15.12 78.3301 15.12C77.7767 15.12 77.3101 14.8867 76.9301 14.42L76.8401 15H76.0301V7.61L76.9501 7.5V10.39C77.3301 9.87 77.8267 9.61 78.4401 9.61ZM78.1101 14.39C78.5167 14.39 78.8334 14.2267 79.0601 13.9C79.2934 13.5667 79.4101 13.0533 79.4101 12.36C79.4101 11.6467 79.3034 11.1333 79.0901 10.82C78.8767 10.5 78.5734 10.34 78.1801 10.34C77.7134 10.34 77.3034 10.6133 76.9501 11.16V13.68C77.0901 13.9 77.2601 14.0733 77.4601 14.2C77.6667 14.3267 77.8834 14.39 78.1101 14.39ZM83.0176 15.12C82.6776 15.12 82.4076 15.02 82.2076 14.82C82.0142 14.6133 81.9176 14.3267 81.9176 13.96V7.61L82.8376 7.5V13.94C82.8376 14.0867 82.8609 14.1933 82.9076 14.26C82.9609 14.3267 83.0476 14.36 83.1676 14.36C83.2942 14.36 83.4076 14.34 83.5076 14.3L83.7476 14.94C83.5276 15.06 83.2842 15.12 83.0176 15.12ZM88.8284 12.21C88.8284 12.3633 88.8218 12.52 88.8084 12.68H85.4484C85.4884 13.26 85.6351 13.6867 85.8884 13.96C86.1418 14.2333 86.4684 14.37 86.8684 14.37C87.1218 14.37 87.3551 14.3333 87.5684 14.26C87.7818 14.1867 88.0051 14.07 88.2384 13.91L88.6384 14.46C88.0784 14.9 87.4651 15.12 86.7984 15.12C86.0651 15.12 85.4918 14.88 85.0784 14.4C84.6718 13.92 84.4684 13.26 84.4684 12.42C84.4684 11.8733 84.5551 11.39 84.7284 10.97C84.9084 10.5433 85.1618 10.21 85.4884 9.97C85.8218 9.73 86.2118 9.61 86.6584 9.61C87.3584 9.61 87.8951 9.84 88.2684 10.3C88.6418 10.76 88.8284 11.3967 88.8284 12.21ZM87.9184 11.94C87.9184 11.42 87.8151 11.0233 87.6084 10.75C87.4018 10.4767 87.0918 10.34 86.6784 10.34C85.9251 10.34 85.5151 10.8933 85.4484 12H87.9184V11.94ZM94.9241 9.61C95.6641 9.61 96.2375 9.85667 96.6441 10.35C97.0575 10.8433 97.2641 11.5133 97.2641 12.36C97.2641 12.9067 97.1708 13.39 96.9841 13.81C96.7975 14.2233 96.5275 14.5467 96.1741 14.78C95.8208 15.0067 95.4008 15.12 94.9141 15.12C94.1741 15.12 93.5975 14.8733 93.1841 14.38C92.7708 13.8867 92.5641 13.2167 92.5641 12.37C92.5641 11.8233 92.6575 11.3433 92.8441 10.93C93.0308 10.51 93.3008 10.1867 93.6541 9.96C94.0075 9.72667 94.4308 9.61 94.9241 9.61ZM94.9241 10.35C94.0108 10.35 93.5541 11.0233 93.5541 12.37C93.5541 13.71 94.0075 14.38 94.9141 14.38C95.8208 14.38 96.2741 13.7067 96.2741 12.36C96.2741 11.02 95.8241 10.35 94.9241 10.35ZM101.264 9.61C101.744 9.61 102.117 9.75333 102.384 10.04C102.657 10.3267 102.794 10.72 102.794 11.22V15H101.874V11.35C101.874 10.9767 101.804 10.7133 101.664 10.56C101.524 10.4067 101.317 10.33 101.044 10.33C100.764 10.33 100.517 10.41 100.304 10.57C100.091 10.73 99.8907 10.96 99.704 11.26V15H98.784V9.73H99.574L99.654 10.51C99.8407 10.23 100.071 10.01 100.344 9.85C100.624 9.69 100.931 9.61 101.264 9.61ZM109.95 14.76C109.603 15 109.21 15.12 108.77 15.12C108.323 15.12 107.973 14.9933 107.72 14.74C107.473 14.48 107.35 14.1067 107.35 13.62V10.44H106.43V9.73H107.35V8.54L108.27 8.43V9.73H109.52L109.42 10.44H108.27V13.58C108.27 13.8533 108.317 14.0533 108.41 14.18C108.51 14.3 108.673 14.36 108.9 14.36C109.107 14.36 109.34 14.29 109.6 14.15L109.95 14.76ZM113.383 9.61C113.863 9.61 114.236 9.75333 114.503 10.04C114.776 10.3267 114.913 10.72 114.913 11.22V15H113.993V11.35C113.993 10.9767 113.92 10.7133 113.773 10.56C113.633 10.4067 113.426 10.33 113.153 10.33C112.88 10.33 112.636 10.41 112.423 10.57C112.21 10.73 112.01 10.9567 111.823 11.25V15H110.903V7.62L111.823 7.52V10.46C112.236 9.89333 112.756 9.61 113.383 9.61ZM120.743 12.21C120.743 12.3633 120.736 12.52 120.723 12.68H117.363C117.403 13.26 117.549 13.6867 117.803 13.96C118.056 14.2333 118.383 14.37 118.783 14.37C119.036 14.37 119.269 14.3333 119.483 14.26C119.696 14.1867 119.919 14.07 120.153 13.91L120.553 14.46C119.993 14.9 119.379 15.12 118.713 15.12C117.979 15.12 117.406 14.88 116.993 14.4C116.586 13.92 116.383 13.26 116.383 12.42C116.383 11.8733 116.469 11.39 116.643 10.97C116.823 10.5433 117.076 10.21 117.403 9.97C117.736 9.73 118.126 9.61 118.573 9.61C119.273 9.61 119.809 9.84 120.183 10.3C120.556 10.76 120.743 11.3967 120.743 12.21ZM119.833 11.94C119.833 11.42 119.729 11.0233 119.523 10.75C119.316 10.4767 119.006 10.34 118.593 10.34C117.839 10.34 117.429 10.8933 117.363 12H119.833V11.94Z" fill="white"/>
<path d="M53.472 33L52.64 30.232H48.464L47.632 33H46.096L49.632 21.976H51.552L55.072 33H53.472ZM48.832 29H52.272L50.56 23.24L48.832 29ZM59.6679 21.976C61.0332 21.976 62.0892 22.264 62.8359 22.84C63.5825 23.4053 63.9559 24.2533 63.9559 25.384C63.9559 26.5893 63.5665 27.4853 62.7879 28.072C62.0092 28.6587 60.9745 28.952 59.6839 28.952H58.2919V33H56.7719V21.976H59.6679ZM59.6199 27.752C60.5052 27.752 61.1772 27.5813 61.6359 27.24C62.1052 26.8987 62.3399 26.2853 62.3399 25.4C62.3399 24.6107 62.1052 24.04 61.6359 23.688C61.1772 23.336 60.5159 23.16 59.6519 23.16H58.2919V27.752H59.6199ZM68.9648 21.976C70.3301 21.976 71.3861 22.264 72.1328 22.84C72.8794 23.4053 73.2528 24.2533 73.2528 25.384C73.2528 26.5893 72.8634 27.4853 72.0848 28.072C71.3061 28.6587 70.2714 28.952 68.9808 28.952H67.5888V33H66.0688V21.976H68.9648ZM68.9168 27.752C69.8021 27.752 70.4741 27.5813 70.9328 27.24C71.4021 26.8987 71.6368 26.2853 71.6368 25.4C71.6368 24.6107 71.4021 24.04 70.9328 23.688C70.4741 23.336 69.8128 23.16 68.9488 23.16H67.5888V27.752H68.9168ZM82.32 21.784C83.056 21.784 83.6853 21.8907 84.208 22.104C84.7307 22.3067 85.2373 22.6267 85.728 23.064L84.896 23.992C84.48 23.6613 84.0693 23.4213 83.664 23.272C83.2693 23.112 82.8427 23.032 82.384 23.032C81.808 23.032 81.3333 23.1653 80.96 23.432C80.5867 23.6987 80.4 24.088 80.4 24.6C80.4 24.92 80.464 25.192 80.592 25.416C80.72 25.6293 80.9547 25.8267 81.296 26.008C81.648 26.1893 82.1547 26.3813 82.816 26.584C83.5093 26.7973 84.0853 27.0267 84.544 27.272C85.0027 27.5173 85.3707 27.8587 85.648 28.296C85.936 28.7227 86.08 29.2667 86.08 29.928C86.08 30.568 85.92 31.1333 85.6 31.624C85.2907 32.1147 84.8373 32.4987 84.24 32.776C83.6533 33.0533 82.9547 33.192 82.144 33.192C80.6187 33.192 79.3707 32.7173 78.4 31.768L79.232 30.84C79.68 31.2027 80.1333 31.48 80.592 31.672C81.0507 31.8533 81.5627 31.944 82.128 31.944C82.8107 31.944 83.376 31.7787 83.824 31.448C84.272 31.1067 84.496 30.616 84.496 29.976C84.496 29.6133 84.4267 29.3147 84.288 29.08C84.1493 28.8347 83.9093 28.616 83.568 28.424C83.2373 28.232 82.752 28.04 82.112 27.848C80.9813 27.5067 80.1547 27.096 79.632 26.616C79.1093 26.136 78.848 25.4853 78.848 24.664C78.848 24.1093 78.992 23.6133 79.28 23.176C79.5787 22.7387 79.9893 22.3973 80.512 22.152C81.0453 21.9067 81.648 21.784 82.32 21.784ZM94.4788 33V27.832H89.8388V33H88.3188V21.976H89.8388V26.584H94.4788V21.976H95.9988V33H94.4788ZM103.13 21.784C104.058 21.784 104.868 22.008 105.562 22.456C106.266 22.8933 106.81 23.5387 107.194 24.392C107.588 25.2453 107.786 26.28 107.786 27.496C107.786 28.6907 107.588 29.7147 107.194 30.568C106.81 31.4213 106.266 32.072 105.562 32.52C104.868 32.968 104.058 33.192 103.13 33.192C102.202 33.192 101.386 32.9733 100.682 32.536C99.9884 32.0987 99.4444 31.4533 99.0498 30.6C98.6658 29.7467 98.4738 28.7173 98.4738 27.512C98.4738 26.328 98.6658 25.304 99.0498 24.44C99.4444 23.576 99.9938 22.92 100.698 22.472C101.402 22.0133 102.212 21.784 103.13 21.784ZM103.13 23.032C102.17 23.032 101.423 23.3947 100.89 24.12C100.356 24.8453 100.09 25.976 100.09 27.512C100.09 29.0373 100.356 30.1573 100.89 30.872C101.434 31.5867 102.18 31.944 103.13 31.944C105.156 31.944 106.17 30.4613 106.17 27.496C106.17 24.52 105.156 23.032 103.13 23.032ZM113.168 21.976C114.533 21.976 115.589 22.264 116.336 22.84C117.083 23.4053 117.456 24.2533 117.456 25.384C117.456 26.5893 117.067 27.4853 116.288 28.072C115.509 28.6587 114.475 28.952 113.184 28.952H111.792V33H110.272V21.976H113.168ZM113.12 27.752C114.005 27.752 114.677 27.5813 115.136 27.24C115.605 26.8987 115.84 26.2853 115.84 25.4C115.84 24.6107 115.605 24.04 115.136 23.688C114.677 23.336 114.016 23.16 113.152 23.16H111.792V27.752H113.12Z" fill="white"/>
<path d="M27 4H17C15.3431 4 14 5.38792 14 7.1V31.9C14 33.6121 15.3431 35 17 35H27C28.6569 35 30 33.6121 30 31.9V7.1C30 5.38792 28.6569 4 27 4Z" stroke="white" stroke-width="2" stroke-linecap="round" stroke-linejoin="round"/>
<path d="M17 4H18.5C18.6326 4 18.7598 4.07024 18.8536 4.19526C18.9473 4.32029 19 4.48986 19 4.66667C19 5.02029 19.1054 5.35943 19.2929 5.60948C19.4804 5.85952 19.7348 6 20 6H24C24.2652 6 24.5196 5.85952 24.7071 5.60948C24.8946 5.35943 25 5.02029 25 4.66667C25 4.48986 25.0527 4.32029 25.1464 4.19526C25.2402 4.07024 25.3674 4 25.5 4H27" stroke="white" stroke-width="2" stroke-linecap="round" stroke-linejoin="round"/>
</svg>
