<?xml version="1.0" encoding="utf-8"?>
<!-- Generator: Adobe Illustrator 27.5.0, SVG Export Plug-In . SVG Version: 6.00 Build 0)  -->
<svg version="1.1" xmlns="http://www.w3.org/2000/svg" xmlns:xlink="http://www.w3.org/1999/xlink" x="0px" y="0px"
	 viewBox="0 0 500 500" style="enable-background:new 0 0 500 500;" xml:space="preserve">
<g id="Background_Complete">
	<g>
		<rect y="382.398" style="fill:#EBEBEB;" width="500" height="0.25"/>
		<rect x="428.222" y="398.494" style="fill:#EBEBEB;" width="21.679" height="0.25"/>
		<rect x="310.558" y="393.306" style="fill:#EBEBEB;" width="34.109" height="0.25"/>
		<rect x="396.586" y="389.208" style="fill:#EBEBEB;" width="44.525" height="0.25"/>
		<rect x="161.877" y="394.25" style="fill:#EBEBEB;" width="11.138" height="0.25"/>
		<rect x="114.585" y="394.25" style="fill:#EBEBEB;" width="38.389" height="0.25"/>
		<rect x="66.307" y="390.028" style="fill:#EBEBEB;" width="27.695" height="0.25"/>
		<path style="fill:#EBEBEB;" d="M237.014,337.8H43.915c-3.147,0-5.708-2.561-5.708-5.708V60.66c0-3.147,2.561-5.708,5.708-5.708
			h193.099c3.146,0,5.707,2.561,5.707,5.708v271.432C242.721,335.239,240.16,337.8,237.014,337.8z M43.915,55.203
			c-3.01,0-5.458,2.448-5.458,5.458v271.432c0,3.01,2.448,5.458,5.458,5.458h193.099c3.009,0,5.457-2.448,5.457-5.458V60.66
			c0-3.009-2.448-5.458-5.457-5.458H43.915z"/>
		<path style="fill:#EBEBEB;" d="M453.31,337.8H260.212c-3.147,0-5.707-2.561-5.707-5.708V60.66c0-3.147,2.561-5.708,5.707-5.708
			H453.31c3.148,0,5.708,2.561,5.708,5.708v271.432C459.019,335.239,456.458,337.8,453.31,337.8z M260.212,55.203
			c-3.009,0-5.457,2.448-5.457,5.458v271.432c0,3.01,2.448,5.458,5.457,5.458H453.31c3.01,0,5.458-2.448,5.458-5.458V60.66
			c0-3.009-2.448-5.458-5.458-5.458H260.212z"/>
	</g>
	<g>
		<path style="fill:#EBEBEB;" d="M131.333,237.667c-6.167-2.667-15.672,5.227-15.589-1.762c0.084-6.989-8.008-10.73-13.612-4.639
			s-8.444,10.328-14.201,6.712c-5.758-3.616-9.212-0.984-12.21,3.827c-0.075,0.12-0.157,0.235-0.246,0.346
			c-2.917,3.613-0.037,9.024,4.607,9.024h33.363c5.012,0,9.883-1.707,13.77-4.873C131.182,243.07,134.787,239.16,131.333,237.667z"
			/>
		<path style="fill:#FAFAFA;" d="M263.297,113.82c2.798-10.833,0.245-16.761-19.898-8.618c-20.143,8.143-18.127-1.398-18.657-15.115
			c-0.53-13.717-26.176-5.293-39.861,10.446c-13.685,15.739-13.24,0.17-33.86,14.921c-12.716,9.097-11.654,14.679-9.482,17.413
			c1.052,1.324,2.686,2.051,4.377,2.051h132.079c3.268,0,6.399-1.624,8.047-4.446C291.925,120.393,260.811,123.45,263.297,113.82z"
			/>
		<circle style="fill:#FAFAFA;" cx="318.78" cy="229.186" r="36.96"/>
		<path style="fill:#F5F5F5;" d="M430.991,155.988c-1.083-4.824-9.709-6.431-19.783-2.68c-10.074,3.752,6.297-19.75-11.14-15.811
			c-24.911,5.627-26.392,22.601-34.933,20.901c-8.589-1.709-17.732-2.017-24.276-0.2c-6.408,1.779-5.169,11.188,1.481,11.188h70.044
			c6.679,0,13.093-3.069,16.942-8.527C430.553,159.121,431.307,157.395,430.991,155.988z"/>
		<path style="fill:#FAFAFA;" d="M123.732,311.406c48.057-18.863,64.122,56.123,133.546,35.497
			c69.425-20.626,105.157-1.13,122.779,11.778c17.623,12.908,25.713,23.719,25.713,23.719H65.878
			C65.878,382.4,90.788,324.337,123.732,311.406z"/>
		<path style="fill:#F0F0F0;" d="M335.094,366.808c-16.957-8.484-51.34-21.299-118.143-7.742
			c-66.803,13.558-82.261-35.731-128.503-23.332c-31.701,8.5-55.669,46.664-55.669,46.664h327.057
			C359.835,382.399,352.051,375.293,335.094,366.808z"/>
		<path style="fill:#E6E6E6;" d="M437.628,362.3c-22.183-5.34-29.598,15.889-61.645,10.049c-32.046-5.84-48.54-0.32-56.675,3.334
			c-8.135,3.654-11.869,6.715-11.869,6.715h156.894C464.333,382.399,452.835,365.961,437.628,362.3z"/>
	</g>
</g>
<g id="Background_Simple">
	<g>
		<path style="fill:#407BFF;" d="M265.85,173.567c-64.381,0.919-112.864-126.04-187.578-57.525
			c-59.322,54.4,25.101,176.684,69.557,212.585c56.794,45.866,138.419,28.749,190.762-26.623
			c25.55-27.029,56.474-88.789,34.978-117.236C344.78,146.673,297.137,173.121,265.85,173.567z"/>
		<path style="opacity:0.9;fill:#FFFFFF;" d="M265.85,173.567c-64.381,0.919-112.864-126.04-187.578-57.525
			c-59.322,54.4,25.101,176.684,69.557,212.585c56.794,45.866,138.419,28.749,190.762-26.623
			c25.55-27.029,56.474-88.789,34.978-117.236C344.78,146.673,297.137,173.121,265.85,173.567z"/>
	</g>
</g>
<g id="Shadow_1_">
	<ellipse id="_x3C_Path_x3E__258_" style="fill:#F5F5F5;" cx="191.287" cy="453.571" rx="135.886" ry="7.936"/>
</g>
<g id="Balloons">
	<g>
		<path style="fill:#263238;" d="M111.647,211.871c-7.129-7.753-9.887-19.02-12.553-29.916c-2.388-9.758-4.857-19.848-10.488-26.965
			l0.38-0.301c5.697,7.199,8.179,17.342,10.579,27.149c2.652,10.837,5.394,22.043,12.439,29.704L111.647,211.871z"/>
		<path style="fill:#407BFF;" d="M92.688,119.397c-1.136-1.845-2.421-3.536-3.821-5.028l0.729-0.684
			c1.445,1.541,2.772,3.286,3.943,5.188L92.688,119.397z"/>
		<path style="fill:#407BFF;" d="M85.139,111.057c-4.844-3.541-10.396-4.988-16.053-4.183l-0.141-0.99
			c5.923-0.84,11.727,0.668,16.784,4.366L85.139,111.057z"/>
		<path style="fill:#407BFF;" d="M90.559,120.709c-7.15-11.614-19.201-14.379-28.459-8.679c-9.259,5.699-12.218,17.704-5.069,29.318
			c6.848,11.125,21.115,18.873,30.443,14.499c-0.228,0.968-0.01,2.214,0.579,3.171l4.311-2.653
			c-0.589-0.956-1.604-1.713-2.571-1.945C97.899,148.061,97.407,131.834,90.559,120.709z"/>
		<path style="fill:#263238;" d="M87.473,156.269c-0.088,0-0.178-0.027-0.254-0.085c-0.186-0.141-0.223-0.405-0.082-0.591
			c0.14-0.188,1.412-1.822,2.727-1.59c0.229,0.04,0.383,0.258,0.344,0.487c-0.039,0.23-0.257,0.381-0.487,0.345
			c-0.69-0.13-1.634,0.899-1.911,1.266C87.728,156.211,87.601,156.269,87.473,156.269z"/>
	</g>
	<g>
		<path style="fill:#263238;" d="M165.171,120.473c-3.99-8.573-4.276-15.768-4.528-22.114c-0.263-6.627-0.49-12.351-4.741-18.008
			l0.277-0.209c4.315,5.745,4.544,11.518,4.809,18.202c0.251,6.315,0.535,13.473,4.496,21.982L165.171,120.473z"/>
		<path style="fill:#407BFF;" d="M140.541,61.366c-0.818-9.714,4.939-16.419,12.683-17.071c7.743-0.652,14.541,4.995,15.359,14.709
			c0.783,9.305-4.133,19.816-11.353,21.26c0.542,0.46,0.946,1.269,1.013,2.069l-3.605,0.304c-0.067-0.8,0.195-1.666,0.653-2.209
			C147.93,80.212,141.325,70.671,140.541,61.366z"/>
		<path style="opacity:0.6;fill:#FFFFFF;" d="M140.541,61.366c-0.818-9.714,4.939-16.419,12.683-17.071
			c7.743-0.652,14.541,4.995,15.359,14.709c0.783,9.305-4.133,19.816-11.353,21.26c0.542,0.46,0.946,1.269,1.013,2.069l-3.605,0.304
			c-0.067-0.8,0.195-1.666,0.653-2.209C147.93,80.212,141.325,70.671,140.541,61.366z"/>
		<path style="fill:#263238;" d="M155.29,80.729c-0.075,0-0.15-0.028-0.209-0.084c-0.12-0.115-0.124-0.307-0.008-0.427
			c0.659-0.686,2.083-0.291,2.242-0.243c0.16,0.047,0.251,0.215,0.204,0.374c-0.047,0.161-0.217,0.256-0.375,0.204
			c-0.315-0.092-1.291-0.276-1.637,0.083C155.448,80.697,155.369,80.729,155.29,80.729z"/>
	</g>
	<g>
		<path style="fill:#263238;" d="M391.038,278.727c-1.453-4.759,1.044-13.227,3.688-22.192c2.925-9.919,6.24-21.162,4.629-29.05
			l0.428-0.088c1.633,7.995-1.699,19.293-4.638,29.262c-2.625,8.9-5.104,17.308-3.689,21.941L391.038,278.727z"/>
		<path style="fill:#407BFF;" d="M390.505,198.046c3.678-11.711,13.585-16.78,22.92-13.848c9.335,2.932,14.564,12.755,10.886,24.465
			c-3.523,11.217-14.264,21.124-23.367,19.363c0.412,0.794,0.497,1.93,0.194,2.894l-4.346-1.365
			c0.303-0.964,1.022-1.848,1.814-2.264C390.13,223.532,386.982,209.264,390.505,198.046z"/>
		<path style="opacity:0.8;fill:#FFFFFF;" d="M390.505,198.046c3.678-11.711,13.585-16.78,22.92-13.848
			c9.335,2.932,14.564,12.755,10.886,24.465c-3.523,11.217-14.264,21.124-23.367,19.363c0.412,0.794,0.497,1.93,0.194,2.894
			l-4.346-1.365c0.303-0.964,1.022-1.848,1.814-2.264C390.13,223.532,386.982,209.264,390.505,198.046z"/>
		<path style="fill:#263238;" d="M400.943,228.407c-0.083,0-0.167-0.027-0.237-0.084c-0.323-0.259-1.377-0.94-1.946-0.684
			c-0.191,0.088-0.416,0-0.501-0.192c-0.086-0.191,0.001-0.416,0.192-0.501c1.093-0.485,2.565,0.653,2.73,0.785
			c0.163,0.131,0.189,0.369,0.058,0.533C401.165,228.358,401.055,228.407,400.943,228.407z"/>
	</g>
</g>
<g id="Character_1_">
	<g>
		<path style="fill:#263238;" d="M201.9,142.094c-0.147,10.401-6.483,6.962-10.638,17.819c-4.155,10.857-23.747,0.741-23.898,15.255
			c-0.149,14.391-14.53,9.736-13.037,21.049c1.494,11.313,18.264,0.821,24.398,12.211c7.26,13.481,24.076,11.21,28.246-2.579
			c3.101-10.254,16.687-2.827,16.485-17.111c-0.3-21.22,16.323-8.315,11.412-25.553c-1.759-6.172,3.246-11.8,2.685-18.352
			c-0.568-6.625-5.465-9.278-8.661-8.788C226.336,130.525,202.147,124.636,201.9,142.094z"/>
		<path style="fill:#7F3E3B;" d="M230.305,180.496c0.402-0.013,0.993-0.044,1.511-0.083l1.627-0.133
			c1.09-0.098,2.188-0.227,3.284-0.383c2.187-0.332,4.386-0.667,6.553-1.16c1.088-0.223,2.161-0.514,3.241-0.774
			c1.064-0.313,2.145-0.581,3.198-0.926c1.058-0.331,2.124-0.647,3.161-1.039l1.567-0.558l1.539-0.623
			c1.039-0.392,2.047-0.845,3.052-1.31l0.757-0.342l0.379-0.171c-0.022-0.014-0.334,0.225-0.292,0.203
			c-0.032,0.07,0.347-0.296,0.619-0.646c1.248-1.488,2.51-3.487,3.746-5.377c2.482-3.85,4.898-7.863,7.399-11.794l0.014-0.022
			c0.607-0.954,1.873-1.236,2.827-0.629c0.817,0.52,1.14,1.523,0.836,2.399c-1.562,4.501-3.351,8.857-5.399,13.199
			c-0.519,1.083-1.051,2.168-1.639,3.247c-0.592,1.086-1.193,2.163-1.98,3.32c-0.426,0.587-0.779,1.146-1.697,1.982
			c-0.173,0.176-0.744,0.559-1.011,0.703l-0.409,0.215l-0.82,0.43c-1.09,0.581-2.187,1.148-3.313,1.649
			c-4.48,2.064-9.149,3.699-13.936,4.829c-2.387,0.591-4.805,1.062-7.248,1.399c-1.222,0.172-2.449,0.314-3.69,0.424
			c-0.618,0.058-1.243,0.106-1.873,0.135c-0.649,0.031-1.228,0.053-1.996,0.056c-2.269,0.009-4.116-1.823-4.124-4.092
			c-0.009-2.227,1.756-4.046,3.965-4.122L230.305,180.496z"/>
		<g>
			<path style="fill:#407BFF;" d="M222.787,177.69c1.627-3.007,19.902-0.711,19.902-0.711l-1.52,13.463c0,0-9.64,4.587-13.218,1.949
				C224.225,189.643,220.413,182.078,222.787,177.69z"/>
			<path style="opacity:0.4;fill:#FFFFFF;" d="M222.787,177.69c1.627-3.007,19.902-0.711,19.902-0.711l-1.52,13.463
				c0,0-9.64,4.587-13.218,1.949C224.225,189.643,220.413,182.078,222.787,177.69z"/>
		</g>
		<g>
			<g>
				<g>
					<path style="fill:#407BFF;" d="M330.745,36.731c-1.155-14.261-11.105-22.582-22.473-21.662s-19.85,10.734-18.695,24.995
						c1.106,13.66,10.755,27.696,21.557,28.046c-0.674,0.796-1.064,2.065-0.968,3.24l5.293-0.429
						c-0.095-1.174-0.684-2.364-1.477-3.042C324.586,65.796,331.851,50.391,330.745,36.731z"/>
					<path style="opacity:0.2;" d="M330.745,36.731c-1.155-14.261-11.105-22.582-22.473-21.662s-19.85,10.734-18.695,24.995
						c1.106,13.66,10.755,27.696,21.557,28.046c-0.674,0.796-1.064,2.065-0.968,3.24l5.293-0.429
						c-0.095-1.174-0.684-2.364-1.477-3.042C324.586,65.796,331.851,50.391,330.745,36.731z"/>
				</g>
				<path style="fill:#263238;" d="M311.134,68.553c-0.164,0-0.322-0.091-0.398-0.249c-0.107-0.22-0.015-0.485,0.204-0.592
					c0.22-0.106,2.188-1.027,3.306-0.188c0.196,0.146,0.236,0.423,0.09,0.619c-0.146,0.196-0.423,0.237-0.619,0.09
					c-0.584-0.437-1.955,0.064-2.389,0.275C311.265,68.539,311.199,68.553,311.134,68.553z"/>
			</g>
			<g>
				<g>
					<path style="fill:#407BFF;" d="M378.585,60.98c10.673-6.714,13.12-17.88,7.768-26.387c-5.352-8.508-16.476-11.136-27.149-4.422
						c-10.223,6.431-17.258,19.69-13.13,28.273c-0.897-0.202-2.047,0.011-2.926,0.564l2.492,3.961
						c0.879-0.553,1.569-1.498,1.775-2.394C353.365,68.012,368.362,67.411,378.585,60.98z"/>
					<path style="opacity:0.4;fill:#FFFFFF;" d="M378.585,60.98c10.673-6.714,13.12-17.88,7.768-26.387
						c-5.352-8.508-16.476-11.136-27.149-4.422c-10.223,6.431-17.258,19.69-13.13,28.273c-0.897-0.202-2.047,0.011-2.926,0.564
						l2.492,3.961c0.879-0.553,1.569-1.498,1.775-2.394C353.365,68.012,368.362,67.411,378.585,60.98z"/>
				</g>
				<path style="fill:#263238;" d="M347.415,60.965c-0.021,0-0.042-0.002-0.063-0.006c-0.212-0.035-0.357-0.235-0.322-0.447
					c0.103-0.635-0.847-1.502-1.188-1.755c-0.173-0.128-0.209-0.373-0.081-0.546c0.128-0.173,0.372-0.209,0.545-0.08
					c0.174,0.128,1.691,1.29,1.493,2.506C347.768,60.829,347.603,60.965,347.415,60.965z"/>
			</g>
			<g>
				<g>
					<path style="fill:#407BFF;" d="M354.638,116.637c11.606-4.929,15.799-15.562,11.87-24.814
						c-3.929-9.251-14.493-13.617-26.098-8.689c-11.117,4.721-20.173,16.691-17.465,25.822c-0.853-0.342-2.023-0.316-2.978,0.09
						l1.829,4.307c0.956-0.406,1.787-1.229,2.133-2.081C328.619,119.563,343.521,121.358,354.638,116.637z"/>
					<path style="opacity:0.8;fill:#FFFFFF;" d="M354.638,116.637c11.606-4.929,15.799-15.562,11.87-24.814
						c-3.929-9.251-14.493-13.617-26.098-8.689c-11.117,4.721-20.173,16.691-17.465,25.822c-0.853-0.342-2.023-0.316-2.978,0.09
						l1.829,4.307c0.956-0.406,1.787-1.229,2.133-2.081C328.619,119.563,343.521,121.358,354.638,116.637z"/>
				</g>
				<path style="fill:#263238;" d="M323.929,111.663c-0.041,0-0.082-0.007-0.123-0.02c-0.204-0.068-0.315-0.289-0.247-0.494
					c0.203-0.61-0.597-1.617-0.893-1.921c-0.15-0.155-0.147-0.402,0.007-0.552c0.155-0.15,0.401-0.146,0.551,0.007
					c0.151,0.154,1.463,1.543,1.075,2.713C324.245,111.56,324.093,111.663,323.929,111.663z"/>
			</g>
			<g>
				<path style="fill:#263238;" d="M277.115,150.669l-0.178-0.562c13.418-4.263,19.284-19.959,25.494-36.576
					c5.984-16.012,12.171-32.57,25.734-39.03l0.253,0.532c-13.348,6.358-19.493,22.802-25.436,38.704
					C296.721,130.493,290.806,146.32,277.115,150.669z"/>
				<g>
					<path style="fill:#407BFF;" d="M353.422,50.046c1.974-14.171-5.929-24.457-17.226-26.03
						c-11.296-1.573-21.709,6.162-23.682,20.333c-1.89,13.574,4.476,29.372,14.944,32.062c-0.831,0.631-1.487,1.785-1.65,2.952
						l5.259,0.732c0.163-1.167-0.153-2.457-0.781-3.29C341.091,77.077,351.531,63.62,353.422,50.046z"/>
					<path style="opacity:0.6;fill:#FFFFFF;" d="M353.422,50.046c1.974-14.171-5.929-24.457-17.226-26.03
						c-11.296-1.573-21.709,6.162-23.682,20.333c-1.89,13.574,4.476,29.372,14.944,32.062c-0.831,0.631-1.487,1.785-1.65,2.952
						l5.259,0.732c0.163-1.167-0.153-2.457-0.781-3.29C341.091,77.077,351.531,63.62,353.422,50.046z"/>
				</g>
				<path style="fill:#263238;" d="M330.286,77.249c-0.124,0-0.248-0.053-0.336-0.154c-0.478-0.558-1.923-0.364-2.392-0.252
					c-0.238,0.055-0.476-0.09-0.533-0.328c-0.056-0.237,0.09-0.477,0.328-0.533c0.237-0.058,2.356-0.525,3.268,0.535
					c0.159,0.185,0.138,0.465-0.047,0.625C330.491,77.213,330.389,77.249,330.286,77.249z"/>
			</g>
			<g>
				<path style="fill:#263238;" d="M276.675,151.792l-0.053-0.587c20.954-1.896,32.509-19.051,42.705-34.186
					c7.361-10.928,13.718-20.365,22.104-21.092l0.051,0.587c-8.105,0.703-14.389,10.032-21.666,20.835
					C310.056,131.837,297.909,149.871,276.675,151.792z"/>
				<g>
					<path style="fill:#407BFF;" d="M374.042,85.344c8.202-11.723,5.842-24.478-3.503-31.016
						c-9.345-6.539-22.136-4.385-30.339,7.338c-7.857,11.229-9.371,28.194-1.273,35.351c-1.027,0.184-2.136,0.913-2.811,1.878
						l4.351,3.044c0.675-0.965,0.981-2.258,0.801-3.285C350.767,103.81,366.185,96.573,374.042,85.344z"/>
					<path style="opacity:0.2;fill:#FFFFFF;" d="M374.042,85.344c8.202-11.723,5.842-24.478-3.503-31.016
						c-9.345-6.539-22.136-4.385-30.339,7.338c-7.857,11.229-9.371,28.194-1.273,35.351c-1.027,0.184-2.136,0.913-2.811,1.878
						l4.351,3.044c0.675-0.965,0.981-2.258,0.801-3.285C350.767,103.81,366.185,96.573,374.042,85.344z"/>
				</g>
				<path style="fill:#263238;" d="M341.267,99.097c-0.199,0-0.38-0.136-0.429-0.338c-0.173-0.71-1.547-1.198-2.015-1.312
					c-0.238-0.059-0.383-0.298-0.325-0.535c0.058-0.238,0.3-0.383,0.535-0.326c0.238,0.059,2.336,0.605,2.666,1.964
					c0.058,0.238-0.088,0.478-0.326,0.535C341.337,99.093,341.302,99.097,341.267,99.097z"/>
			</g>
			<g>
				<path style="fill:#263238;" d="M277.14,150.66l-0.228-0.543c11.948-5.021,10.702-20.846,9.497-36.15
					c-1.078-13.694-2.193-27.854,6.288-34.102l0.35,0.474c-8.217,6.053-7.115,20.047-6.05,33.58
					C288.218,129.433,289.48,145.475,277.14,150.66z"/>
				<g>
					<path style="fill:#407BFF;" d="M317.802,54.745c1.974-14.171-5.929-24.457-17.226-26.03
						c-11.296-1.573-21.709,6.162-23.682,20.333c-1.89,13.574,4.476,29.372,14.944,32.062c-0.831,0.631-1.487,1.785-1.65,2.952
						l5.259,0.732c0.163-1.167-0.153-2.457-0.781-3.29C305.471,81.776,315.912,68.32,317.802,54.745z"/>
					<path style="opacity:0.4;fill:#FFFFFF;" d="M317.802,54.745c1.974-14.171-5.929-24.457-17.226-26.03
						c-11.296-1.573-21.709,6.162-23.682,20.333c-1.89,13.574,4.476,29.372,14.944,32.062c-0.831,0.631-1.487,1.785-1.65,2.952
						l5.259,0.732c0.163-1.167-0.153-2.457-0.781-3.29C305.471,81.776,315.912,68.32,317.802,54.745z"/>
				</g>
				<path style="fill:#263238;" d="M294.667,81.947c-0.124,0.001-0.248-0.052-0.336-0.153c-0.478-0.558-1.923-0.363-2.391-0.252
					c-0.238,0.056-0.477-0.09-0.533-0.328c-0.056-0.237,0.09-0.477,0.328-0.533c0.239-0.056,2.357-0.525,3.267,0.535
					c0.159,0.186,0.138,0.465-0.047,0.625C294.872,81.912,294.769,81.947,294.667,81.947z"/>
			</g>
			<g>
				<path style="fill:#263238;" d="M278.507,150.108c-0.499,0-1.012-0.045-1.54-0.136l0.1-0.58
					c6.513,1.113,10.737-5.574,15.629-13.327c5.305-8.408,11.318-17.938,21.876-20.244l0.126,0.576
					c-10.317,2.254-16.26,11.673-21.503,19.983C288.572,143.704,284.531,150.108,278.507,150.108z"/>
				<path style="fill:#407BFF;" d="M342.823,87.168c2.286-16.413-6.867-28.326-19.951-30.148
					c-13.084-1.822-25.143,7.136-27.429,23.55c-2.189,15.722,5.185,34.018,17.308,37.135c-0.962,0.73-1.722,2.067-1.91,3.418
					l6.091,0.848c0.188-1.352-0.178-2.845-0.904-3.811C328.542,118.475,340.634,102.889,342.823,87.168z"/>
				<path style="fill:#263238;" d="M316.028,118.673c-0.144,0-0.287-0.06-0.389-0.178c-0.554-0.645-2.227-0.42-2.769-0.291
					c-0.273,0.064-0.552-0.104-0.618-0.38c-0.066-0.275,0.104-0.551,0.379-0.617c0.276-0.068,2.729-0.609,3.784,0.62
					c0.185,0.214,0.161,0.538-0.055,0.723C316.265,118.632,316.146,118.673,316.028,118.673z"/>
			</g>
		</g>
		<path style="fill:#7F3E3B;" d="M282.229,149.25l-2.391-2.606c-0.674-0.734-1.817-0.78-2.547-0.102l-1.537,1.427
			c-1.001,0.93-1.788,2.066-2.306,3.331l-2.155,5.262l1.538,2.888c3.336,0.196,5.959-3.282,5.959-3.282l3.54-4.609
			C282.862,150.867,282.819,149.893,282.229,149.25z"/>
		<polygon style="fill:#7F3E3B;" points="187.3,404.687 195.188,406.236 200.616,388.329 192.728,386.78 		"/>
		<polygon style="fill:#7F3E3B;" points="132.795,368.884 139.29,373.621 152.349,360.103 145.854,355.366 		"/>
		<path style="fill:#263238;" d="M140.385,373.312l-5.502-7.162c-0.2-0.261-0.544-0.333-0.826-0.174l-6.293,3.538
			c-0.653,0.367-0.821,1.3-0.348,1.893c1.961,2.464,3.032,3.554,5.452,6.704c1.489,1.938,3.882,5.848,5.767,8.646
			c1.844,2.737,4.753,1.082,4.218-0.252c-2.397-5.981-2.161-9.057-2.041-11.826C140.833,374.179,140.678,373.693,140.385,373.312z"
			/>
		<path style="fill:#263238;" d="M195.641,406.252l-6.685-6.073c-0.243-0.221-0.594-0.231-0.844-0.025l-5.566,4.597
			c-0.577,0.477-0.577,1.425-0.007,1.925c2.367,2.077,3.614,2.961,6.554,5.631c1.809,1.643,5.457,5.582,7.955,7.851
			c2.443,2.219,4.874-0.08,4.037-1.248c-3.752-5.239-4.409-8.642-4.781-11.388C196.236,407.026,195.997,406.575,195.641,406.252z"/>
		<g style="opacity:0.2;">
			<polygon points="200.613,388.334 197.817,397.564 189.925,396.014 192.722,386.784 			"/>
			<polygon points="145.849,355.368 152.346,360.107 145.612,367.073 139.114,362.334 			"/>
		</g>
		<g>
			<path style="fill:#407BFF;" d="M237.37,190.012c-1.137,6.785-3.802,18.35-9.654,38.048l-32.384-4.153
				c2.234-13.11,3.291-21.236,0.461-49.092c0,0,6.974-0.606,13.984-0.048c5.483,0.436,9.97,0.835,14.705,1.886
				c1.744,0.387,3.545,0.852,5.235,1.322C234.977,179.436,238.272,184.628,237.37,190.012z"/>
			<path style="opacity:0.4;fill:#FFFFFF;" d="M237.37,190.012c-1.137,6.785-3.802,18.35-9.654,38.048l-32.384-4.153
				c2.234-13.11,3.291-21.236,0.461-49.092c0,0,6.974-0.606,13.984-0.048c5.483,0.436,9.97,0.835,14.705,1.886
				c1.744,0.387,3.545,0.852,5.235,1.322C234.977,179.436,238.272,184.628,237.37,190.012z"/>
		</g>
		<path style="fill:#7F3E3B;" d="M213.358,158.396c0.321,4.851,0.135,13.638-3.581,16.371c0,0,0.678,4.965,9.469,6.093
			c9.667,1.24,5.235-4.206,5.235-4.206c-5.115-1.937-4.476-5.834-3.086-9.392L213.358,158.396z"/>
		<path style="opacity:0.2;" d="M216.635,162.013l4.758,5.244c-0.332,0.842-0.617,1.702-0.788,2.552
			c-1.978-0.55-4.463-3.117-4.407-5.255C216.226,163.487,216.4,162.481,216.635,162.013z"/>
		<path style="fill:#7F3E3B;" d="M208.368,150.079c1.393,7.856,1.814,11.211,6.275,14.813c6.711,5.419,16.055,1.991,17.038-6.123
			c0.884-7.303-1.542-18.923-9.646-21.184C214.049,135.358,206.975,142.223,208.368,150.079z"/>
		<path style="fill:#263238;" d="M226.193,137.057c5.466,4.852-9.397,1.548-9.501,5.939c-0.104,4.391-0.268,12.45-7.319,12.827
			c-7.051,0.378-6.968-5.53-5.973-9.814C204.395,141.726,216.735,128.66,226.193,137.057z"/>
		<path style="fill:#263238;" d="M227.716,228.061c0,0-1.588,62.229-5.229,86.477c-3.787,25.222-22.617,81.536-22.617,81.536
			l-10.667-2.094c0,0,10.963-55.094,13.196-80.055c2.434-27.212,1.603-88.905,1.603-88.905L227.716,228.061z"/>
		<polygon style="fill:#407BFF;" points="188.205,394.18 200.72,396.637 202.422,392.826 188.503,389.585 		"/>
		<path style="opacity:0.2;" d="M211.788,241.551c5.902,17.021-4.198,45.394-8.404,55.893c0.649-16.495,0.774-36.743,0.756-51.627
			C206.408,237.688,209.066,233.704,211.788,241.551z"/>
		<path style="fill:#263238;" d="M219.164,226.964c0,0-15.525,62.915-23.694,82.705c-9.699,23.496-47.195,57.047-47.195,57.047
			l-8.857-6.46c0,0,28.088-39.461,34.761-51.639c14.242-25.99,10.285-67.951,21.153-84.709L219.164,226.964z"/>
		<polygon style="fill:#407BFF;" points="138.06,359.974 149.048,367.988 152.738,365.388 140.238,355.378 		"/>
		<path style="fill:#263238;" d="M221.741,150.762c0.074,0.644,0.475,1.127,0.896,1.079c0.421-0.048,0.703-0.61,0.629-1.254
			c-0.074-0.644-0.475-1.127-0.896-1.079C221.948,149.557,221.667,150.118,221.741,150.762z"/>
		<path style="fill:#263238;" d="M229.022,149.927c0.074,0.644,0.475,1.127,0.896,1.079c0.421-0.048,0.703-0.61,0.629-1.254
			c-0.074-0.644-0.475-1.127-0.896-1.079C229.23,148.722,228.948,149.283,229.022,149.927z"/>
		<path style="fill:#263238;" d="M229.469,148.731l1.496-0.623C230.965,148.107,230.31,149.407,229.469,148.731z"/>
		<path style="fill:#630F0F;" d="M226.395,151.317c0,0,1.411,2.648,2.768,3.848c-0.76,0.891-2.247,0.694-2.247,0.694
			L226.395,151.317z"/>
		<path style="fill:#263238;" d="M223.692,158.785c0.302,0.012,0.621,0.001,0.957-0.038c0.105-0.012,0.18-0.106,0.167-0.211
			c-0.012-0.105-0.115-0.179-0.21-0.168c-2.836,0.324-4.374-1.499-4.389-1.518c-0.067-0.081-0.186-0.092-0.268-0.025
			c-0.081,0.067-0.092,0.187-0.025,0.268C219.984,157.167,221.276,158.691,223.692,158.785z"/>
		<path style="fill:#7F3E3B;" d="M207.055,157.579c0.74,1.479,2.093,2.479,3.389,2.889c1.95,0.615,2.992-1.112,2.507-2.988
			c-0.437-1.688-1.977-4.043-3.962-3.84C207.035,153.839,206.21,155.887,207.055,157.579z"/>
		<path style="fill:#263238;" d="M218.648,149.614c0.161,0.006,0.314-0.09,0.372-0.249c0.611-1.653,2.798-2.253,2.82-2.259
			c0.203-0.054,0.324-0.263,0.27-0.466c-0.054-0.203-0.261-0.324-0.466-0.27c-0.106,0.028-2.593,0.712-3.338,2.731
			c-0.073,0.197,0.028,0.416,0.225,0.489C218.569,149.605,218.609,149.612,218.648,149.614z"/>
		<path style="fill:#263238;" d="M230.824,146.313c0.13,0.005,0.259-0.056,0.335-0.173c0.114-0.176,0.064-0.412-0.113-0.527
			c-1.767-1.145-3.383-0.451-3.45-0.421c-0.192,0.085-0.279,0.31-0.194,0.503c0.085,0.191,0.309,0.279,0.501,0.194l0,0
			c0.053-0.023,1.317-0.552,2.728,0.363C230.692,146.291,230.758,146.311,230.824,146.313z"/>
		<path style="fill:#7F3E3B;" d="M199.267,185.566c-1.505,4.45-3.086,8.907-4.648,13.34l-2.294,6.645
			c-0.732,2.186-1.506,4.46-2.051,6.459c-0.017,0.05-0.081,0.344-0.062,0.744c0.005,0.387,0.053,0.856,0.115,1.34
			c0.134,0.977,0.366,2.036,0.637,3.099c0.551,2.134,1.239,4.33,1.991,6.511c0.73,2.194,1.532,4.387,2.376,6.569
			c0.811,2.193,1.686,4.391,2.526,6.559l0.015,0.038c0.407,1.053-0.115,2.236-1.168,2.644c-0.924,0.357-1.948-0.002-2.461-0.807
			c-2.607-4.086-4.89-8.283-7.01-12.671c-1.031-2.206-2.024-4.446-2.854-6.844c-0.413-1.203-0.8-2.435-1.105-3.786
			c-0.15-0.682-0.281-1.385-0.35-2.18c-0.071-0.781-0.098-1.678,0.101-2.794c0.531-2.615,1.146-4.875,1.813-7.214
			c0.654-2.316,1.349-4.604,2.081-6.876c1.436-4.555,2.945-9.056,4.606-13.536c0.789-2.128,3.154-3.214,5.283-2.425
			c2.089,0.775,3.174,3.068,2.467,5.165L199.267,185.566z"/>
		<g>
			<path style="fill:#407BFF;" d="M195.794,174.815c-3.371,0.571-8.701,11.242-8.701,11.242l11.433,10.614
				c0,0,5.786-8.737,4.961-13.106C202.627,179.017,199.64,174.164,195.794,174.815z"/>
			<path style="opacity:0.4;fill:#FFFFFF;" d="M195.794,174.815c-3.371,0.571-8.701,11.242-8.701,11.242l11.433,10.614
				c0,0,5.786-8.737,4.961-13.106C202.627,179.017,199.64,174.164,195.794,174.815z"/>
		</g>
		<path style="fill:#407BFF;" d="M142.119,377.288c0.031,0.009,0.063,0.016,0.094,0.021c0.358,0.064,0.693-0.059,0.994-0.366
			c0.227-0.232,0.231-0.468,0.194-0.626c-0.234-0.999-2.971-1.975-3.282-2.083c-0.077-0.028-0.152-0.005-0.203,0.051
			c-0.051,0.056-0.064,0.137-0.033,0.207C140.308,375.436,141.153,377.026,142.119,377.288z M140.427,374.752
			c1.083,0.422,2.48,1.125,2.604,1.651c0.015,0.066,0.019,0.157-0.095,0.273c-0.211,0.215-0.425,0.299-0.656,0.258
			C141.742,376.837,141.059,376.032,140.427,374.752z"/>
		<path style="fill:#407BFF;" d="M140.264,374.682c0.964,0.261,2.857,0.282,3.404-0.345c0.117-0.133,0.275-0.418,0.031-0.832
			c-0.155-0.262-0.39-0.426-0.693-0.484c-1.146-0.222-2.988,1.18-3.066,1.24c-0.054,0.041-0.081,0.108-0.073,0.175
			c0.009,0.067,0.052,0.125,0.115,0.151C140.063,374.622,140.158,374.654,140.264,374.682z M142.991,373.409
			c0.167,0.045,0.291,0.141,0.38,0.291c0.125,0.211,0.071,0.318,0.01,0.387c-0.37,0.424-1.959,0.495-2.909,0.26
			c0.638-0.435,1.778-1.084,2.461-0.952C142.954,373.399,142.973,373.404,142.991,373.409z"/>
		<path style="fill:#407BFF;" d="M196.93,409.321c0.592,0.538,1.221,0.942,1.776,0.945c0.353,0.002,0.648-0.151,0.878-0.455
			c0.137-0.182,0.172-0.386,0.101-0.592c-0.366-1.061-3.839-2.006-4.233-2.109c-0.078-0.021-0.161,0.01-0.206,0.077
			c-0.045,0.067-0.044,0.155,0.005,0.22C195.665,407.967,196.275,408.726,196.93,409.321z M199.109,409.053
			c0.109,0.099,0.184,0.197,0.216,0.29c0.029,0.085,0.015,0.158-0.045,0.237c-0.155,0.206-0.343,0.305-0.572,0.304
			c-0.656-0.003-1.686-0.836-2.806-2.253C197.074,407.982,198.545,408.541,199.109,409.053z"/>
		<path style="fill:#407BFF;" d="M195.276,407.435c0.02,0.018,0.043,0.032,0.069,0.04c1,0.324,3.57,0.315,4.072-0.458
			c0.119-0.183,0.186-0.485-0.168-0.879c-0.262-0.291-0.599-0.449-1.001-0.466c-1.314-0.057-2.907,1.42-2.974,1.483
			c-0.049,0.046-0.07,0.115-0.056,0.18C195.226,407.374,195.247,407.409,195.276,407.435z M198.885,406.31
			c0.028,0.025,0.055,0.052,0.081,0.081c0.233,0.26,0.157,0.378,0.132,0.417c-0.302,0.465-2.171,0.609-3.292,0.39
			c0.493-0.403,1.564-1.184,2.426-1.147C198.491,406.064,198.706,406.148,198.885,406.31z"/>
		<path style="fill:#263238;" d="M222.187,149.565l1.496-0.623C223.684,148.942,223.028,150.241,222.187,149.565z"/>
		<path style="fill:#FFFFFF;" d="M195.091,221.945l-1.2,2.792c-0.142,0.21,0.095,0.474,0.469,0.522l33.329,4.274
			c0.292,0.037,0.552-0.075,0.594-0.256l0.664-2.861c0.046-0.198-0.185-0.401-0.505-0.442l-32.793-4.206
			C195.409,221.738,195.183,221.809,195.091,221.945z"/>
		<g>
			<path style="fill:#263238;" d="M199.025,226.176l-0.878-0.113c-0.175-0.022-0.297-0.13-0.27-0.238l0.895-3.713
				c0.026-0.109,0.191-0.179,0.366-0.157l0.878,0.113c0.175,0.022,0.297,0.13,0.27,0.238l-0.895,3.713
				C199.365,226.128,199.2,226.199,199.025,226.176z"/>
			<path style="fill:#263238;" d="M225.182,229.531l-0.878-0.113c-0.175-0.022-0.297-0.13-0.27-0.238l0.895-3.713
				c0.026-0.109,0.191-0.179,0.366-0.157l0.878,0.113c0.175,0.023,0.297,0.13,0.27,0.238l-0.895,3.713
				C225.521,229.483,225.357,229.553,225.182,229.531z"/>
			<path style="fill:#263238;" d="M212.104,227.854l-0.878-0.113c-0.175-0.022-0.297-0.13-0.27-0.238l0.895-3.713
				c0.026-0.109,0.191-0.179,0.366-0.157l0.878,0.113c0.175,0.022,0.297,0.13,0.27,0.238l-0.895,3.713
				C212.443,227.805,212.278,227.876,212.104,227.854z"/>
		</g>
		<path style="fill:#7F3E3B;" d="M206.008,244.548l-0.363-1.077c-0.623-1.848-1.846-3.435-3.475-4.506l-4.741-3.119l-3.308,0.268
			c-0.947,3.205,2.727,6.831,2.727,6.831l2.434,4.148c0.531,0.905,1.592,1.357,2.612,1.113l2.408-0.576
			C205.666,247.304,206.456,245.877,206.008,244.548z"/>
	</g>
</g>
</svg>
