<?xml version="1.0" encoding="utf-8"?>
<!-- Generator: Adobe Illustrator 27.5.0, SVG Export Plug-In . SVG Version: 6.00 Build 0)  -->
<svg version="1.1" xmlns="http://www.w3.org/2000/svg" xmlns:xlink="http://www.w3.org/1999/xlink" x="0px" y="0px"
	 viewBox="0 0 500 500" style="enable-background:new 0 0 500 500;" xml:space="preserve">
<g id="Floor">
	<g id="Shrubbery_1_">
		<g id="Shrubbery">
			<g id="Shrubbery_3_">
				<path style="fill:#EBEBEB;" d="M490.28,266.714c6.583-4.692,6.535-16.854-1.829-19.462c5.774-5.784,4.027-18.241-4.342-19.01
					c2.047-5.111,1.041-12.108-5.524-13.398c2.08-6.267-3.719-10.612-9.535-8.362c-0.253-6.605-9.608-6.985-11.715-2.335
					c0.113-2.557-3.716-7.293-6.171-7.303c4.241-3.32,3.069-9.974-0.57-10.858c4.95-3.755,2.298-12.324-3.613-12.242
					c3.965-6.248-4.492-12.776-9.746-10.851c2.976-7.024-10.928-12.611-13.937-5.169c-5.322-8.763-23.565-3.605-21.126,7.788
					c-4.354-0.546-6.681,4.751-3.23,7.741c-3.032-1.916-6.993-0.756-8.566,1.864c0.703-2.022-0.706-4.104-2.807-4.396
					c5.785-2.348,1.73-10.943-3.609-10.607c5.047-6.481-5.19-14.013-10.63-8.872c-2.53-5.948-11.569-4.696-10.974,2.279
					c-2.008-3.633-5.946-3.376-9.18-1.434c-4.464,2.681-3.866,7.457-1.411,11.324c-1.854-2.212-7.504-3.431-8.364,0.231
					c-1.29-1.947-4.613-2.431-6.375-0.727c-1.671-6.003-12.413-6.786-14.446,0.611c-1.815-1.002-3.759-0.559-4.823,0.065
					c-1.773,1.037-3.328,3.537-2.805,5.644c-1.661-1.985-6.084-1.073-8.087-0.204c-3.56,1.545-3.258,4.323-4.299,7.387
					c-2.381-1.441-4.23-0.976-6.537,0.599c0.238-1.029,0.322-2.331,0.038-3.395c-0.413-1.544-2.066-2.702-3.439-3.346
					c-1.763-0.826-4.294-1.377-6.215-0.83c-1.281,0.365-2.638,1.153-3.165,2.118c-2.823-4.708-15.385-1.361-11.049,4.391
					c-2.727-0.617-6.98,1.92-8.167,4.32c-1.704,3.447,0.521,5.922,2.978,8.015c-2.179-0.054-3.188,2.093-3.424,4.417
					c-0.416-0.857-0.958-1.621-1.72-2.112c-2.174-1.404-7.37-0.171-7.211,2.978c-0.603-3.459-2.919-5.758-8.181-5.404
					c-5.819,0.391-7.06,4.467-6.658,7.567c-0.579-2.066-1.848-5.614-3.984-7.173c-2.203-1.608-7.507-1.856-9.44,0.513
					c-0.244-0.155,0.267,0.112,0,0c-0.008-2.476-0.609-5.175-2.127-7.218c-1.805-2.429-6.332-4.838-9.165-2.787
					c1.081-4.24,0.375-9.691-4.926-10.57c-5.092-0.845-12.028,6.261-13.221,10.812c-0.611-3.175-1.552-6.493-5.032-7.634
					c-2.909-0.954-6.007,0.122-8.061,2.209c0.529-2.648,1.854-5.645,0.429-8.189c-1.356-2.422-4.377-3.605-6.869-2.17
					c-2.033-7.397-12.775-6.614-14.446-0.611c-1.763-1.704-5.086-1.22-6.375,0.727c-0.859-3.661-6.51-2.443-8.364-0.231
					c2.456-3.868,3.053-8.643-1.411-11.324c-3.234-1.943-7.172-2.199-9.18,1.434c0.595-6.974-8.444-8.227-10.974-2.279
					c-5.44-5.141-15.677,2.391-10.63,8.872c-5.339-0.336-9.394,8.259-3.609,10.607c-2.101,0.292-3.51,2.374-2.807,4.396
					c-1.574-2.62-5.534-3.78-8.566-1.864c3.45-2.989,1.123-8.286-3.23-7.741c2.439-11.393-15.804-16.551-21.126-7.788
					c-3.009-7.441-16.913-1.855-13.937,5.169c-5.254-1.925-13.711,4.603-9.746,10.851c-5.912-0.082-8.564,8.487-3.613,12.242
					c-3.639,0.885-4.811,7.538-0.57,10.858c-2.455,0.01-6.285,4.746-6.171,7.303c-2.106-4.65-11.461-4.27-11.715,2.335
					c-5.815-2.25-11.614,2.095-9.535,8.362c-6.565,1.29-7.571,8.287-5.524,13.398c-8.369,0.769-10.115,13.226-4.342,19.01
					c-8.365,2.608-8.413,14.77-1.829,19.462c-4.358,2.08-4.79,12.192,2.313,14.984c-4.628,4.131-3.978,13.068,3.207,13.682
					c-3.663,7.551,6.56,12.975,13.308,8.898c1.645-0.788,1.322-0.956,3.025-0.115h436.853c1.703-0.841,1.379-0.674,3.025,0.115
					c6.748,4.077,16.971-1.346,13.308-8.898c7.186-0.614,7.835-9.551,3.207-13.682C495.069,278.905,494.637,268.794,490.28,266.714z
					"/>
				<g>
					<path style="fill:#E0E0E0;" d="M71.221,177.617c2.455-2.766,6.692-3.018,9.458-0.563c0.5,0.444,0.907,0.95,1.236,1.49
						c1.384-1.149,3.22-1.747,5.144-1.496c2.936,0.384,5.167,2.6,5.702,5.339c-1.246-1.472-3.015-2.517-5.083-2.787
						c-3.473-0.454-6.711,1.395-8.171,4.369c-0.031-0.371-0.01-0.755,0.041-1.146c0.124-0.945,0.442-1.817,0.904-2.585
						c-0.211-0.254-0.438-0.499-0.694-0.726c-2.619-2.325-6.337-2.613-9.215-0.971C70.727,178.217,70.96,177.911,71.221,177.617z"/>
					<path style="fill:#E0E0E0;" d="M140.908,166.072c-1.894-2.134-5.161-2.328-7.295-0.434c-0.386,0.343-0.699,0.732-0.953,1.149
						c-1.068-0.887-2.484-1.348-3.968-1.154c-2.265,0.296-3.985,2.005-4.398,4.118c0.961-1.136,2.325-1.941,3.92-2.15
						c2.679-0.35,5.176,1.076,6.302,3.37c0.024-0.286,0.008-0.583-0.031-0.884c-0.095-0.729-0.341-1.402-0.697-1.994
						c0.163-0.196,0.338-0.385,0.535-0.56c2.02-1.793,4.888-2.015,7.107-0.749C141.289,166.535,141.11,166.298,140.908,166.072z"/>
					<path style="fill:#E0E0E0;" d="M11.55,247.251c-5.774-5.784-4.027-18.241,4.342-19.01c-2.047-5.111-1.04-12.108,5.524-13.398
						c-2.08-6.267,3.719-10.612,9.535-8.362c0.253-6.605,9.608-6.985,11.715-2.335c-0.113-2.557,3.716-7.293,6.171-7.303
						c-4.242-3.32-3.069-9.974,0.57-10.858c-4.95-3.755-2.298-12.324,3.614-12.242c-3.149-4.961,1.535-10.095,6.229-11.036
						c-1.703,1.895-3.253,4.425-2.014,7.039c1.109,2.339,4.119,2.747,6.113,3.728c-4.741,1.601-6.916,6.36-3.389,10.531
						c-4.829,0.608-5.453,7.03-3.519,9.634c1.191-1.033,3.655-1.262,5.454-0.919c2.424,0.461,3.73,1.686,5.909,4.118
						c-4.301-3.318-8.663,3.034-5.934,6.775c-2.182-0.931-5.745-1.181-7.725,2.272c-1.23,2.146-0.596,5.339,1.311,6.907
						c-1.711,0.659-2.224,3.584-1.788,5.197c0.641,2.374,2.181,4.023,4.478,4.353c-6.294,1.689-0.265,9.146,1.942,11.421
						c-5.006-0.436-6.998,3.081-8.485,6.939c0.421-1.093-2.886-3.11-3.597-3.432c-1.622-0.735-3.496-0.962-5.255-0.724
						c-3.635,0.491-6.487,3.049-6.308,6.879c-0.044-0.942-3.643-1.478-5.738-0.192c-2.302,1.413-3.704,3.513-4.038,6.302
						c-0.412,3.437,2.818,6.317,5.637,7.865c-2.816,1.992-5.661,3.509-6.563,7.274c-1.097,4.581,2.709,6.223,5.177,8.999
						c-2.739,1.806-5.472,2.995-6.415,6.614c-1.158,4.439,2.466,6.455,5.293,8.887c-7.108,0.502-10.081,9.694-6.502,15.003
						c0.377,0.559,0.8,1.02,1.246,1.435c-6.058,0.652-12.28-4.084-9.298-10.232c-7.186-0.614-7.835-9.551-3.207-13.682
						c-7.103-2.792-6.67-12.903-2.313-14.984C3.137,262.021,3.185,249.859,11.55,247.251z"/>
				</g>
				<g>
					<path style="fill:#E0E0E0;" d="M429.951,171.281c-2.456-2.766-6.692-3.018-9.458-0.563c-0.5,0.444-0.907,0.95-1.236,1.49
						c-1.384-1.149-3.22-1.747-5.144-1.496c-2.936,0.384-5.167,2.6-5.702,5.339c1.246-1.472,3.015-2.517,5.083-2.787
						c3.473-0.454,6.711,1.395,8.171,4.369c0.031-0.371,0.01-0.755-0.041-1.146c-0.123-0.945-0.442-1.817-0.904-2.585
						c0.211-0.254,0.438-0.499,0.694-0.726c2.619-2.325,6.337-2.613,9.215-0.971C430.445,171.882,430.212,171.575,429.951,171.281z"
						/>
					<path style="fill:#E0E0E0;" d="M359.092,166.072c1.894-2.134,5.161-2.328,7.295-0.434c0.386,0.343,0.699,0.732,0.954,1.149
						c1.068-0.887,2.484-1.348,3.968-1.154c2.265,0.296,3.985,2.005,4.398,4.118c-0.961-1.136-2.325-1.941-3.92-2.15
						c-2.679-0.35-5.176,1.076-6.302,3.37c-0.024-0.286-0.008-0.583,0.031-0.884c0.095-0.729,0.341-1.402,0.698-1.994
						c-0.163-0.196-0.338-0.385-0.535-0.56c-2.02-1.793-4.888-2.015-7.107-0.749C358.711,166.535,358.89,166.298,359.092,166.072z"
						/>
					<path style="fill:#E0E0E0;" d="M488.45,247.251c5.774-5.784,4.027-18.241-4.342-19.01c2.047-5.111,1.041-12.108-5.524-13.398
						c2.08-6.267-3.719-10.612-9.535-8.362c-0.253-6.605-9.608-6.985-11.715-2.335c0.113-2.557-3.716-7.293-6.171-7.303
						c4.241-3.32,3.069-9.974-0.57-10.858c4.95-3.755,2.298-12.324-3.614-12.242c3.149-4.961-1.535-10.095-6.228-11.036
						c1.703,1.895,3.253,4.425,2.014,7.039c-1.109,2.339-4.119,2.747-6.113,3.728c4.741,1.601,6.916,6.36,3.389,10.531
						c4.829,0.608,5.453,7.03,3.519,9.634c-1.191-1.033-3.655-1.262-5.454-0.919c-2.424,0.461-3.73,1.686-5.909,4.118
						c4.301-3.318,8.663,3.034,5.934,6.775c2.182-0.931,5.745-1.181,7.725,2.272c1.23,2.146,0.596,5.339-1.311,6.907
						c1.711,0.659,2.224,3.584,1.788,5.197c-0.641,2.374-2.181,4.023-4.478,4.353c6.294,1.689,0.265,9.146-1.942,11.421
						c5.005-0.436,6.998,3.081,8.485,6.939c-0.421-1.093,2.886-3.11,3.596-3.432c1.622-0.735,3.496-0.962,5.255-0.724
						c3.634,0.491,6.487,3.049,6.308,6.879c0.044-0.942,3.643-1.478,5.738-0.192c2.302,1.413,3.704,3.513,4.038,6.302
						c0.412,3.437-2.818,6.317-5.637,7.865c2.816,1.992,5.661,3.509,6.563,7.274c1.097,4.581-2.709,6.223-5.177,8.999
						c2.739,1.806,5.472,2.995,6.415,6.614c1.158,4.439-2.466,6.455-5.293,8.887c7.108,0.502,10.081,9.694,6.502,15.003
						c-0.377,0.559-0.8,1.02-1.246,1.435c6.058,0.652,12.28-4.084,9.298-10.232c7.185-0.614,7.835-9.551,3.207-13.682
						c7.103-2.792,6.671-12.903,2.313-14.984C496.863,262.021,496.815,249.859,488.45,247.251z"/>
				</g>
			</g>
		</g>
	</g>
	<g id="Grass">
		<path style="fill:#BA68C8;" d="M79.849,437.788c-93.971-54.254-93.971-142.219,0-196.474c93.971-54.255,246.329-54.255,340.301,0
			c93.972,54.255,93.972,142.22,0,196.474S173.82,492.042,79.849,437.788z"/>
		<path style="opacity:0.65;fill:#FFFFFF;" d="M79.849,437.788c-93.971-54.254-93.971-142.219,0-196.474
			c93.971-54.255,246.329-54.255,340.301,0c93.972,54.255,93.972,142.22,0,196.474S173.82,492.042,79.849,437.788z"/>
	</g>
	<g id="Flowers_7_">
		<g id="Flowers_13_">
			<g id="XMLID_1658_">
				<path id="XMLID_1693_" style="fill:#FAFAFA;" d="M359.531,340.863c0,0-0.275-3.844-3.295-4.256c0,0-2.471-0.412-3.844,3.432
					c0,0-3.02-1.51-7.139,0.824c0,0-0.686,3.569,3.295,4.942c0,0-2.334,1.785-1.236,6.04c0,0,6.178,2.059,7.688-1.785
					c0,0,0.549,3.432,6.589,3.432c0,0,2.608-3.295,0-6.864c0,0,4.255-0.137,4.942-3.295
					C366.533,343.334,363.649,338.529,359.531,340.863z"/>
				<path id="XMLID_1659_" style="fill:#F0997A;" d="M355.817,341.473c-2.948-0.263-4.371,1.928-4.563,2.827
					c0,0,0.004,2.242,3.855,2.57c3.851,0.328,4.433-1.926,4.433-1.926S359.416,341.794,355.817,341.473z"/>
			</g>
			<g id="XMLID_1655_">
				<path id="XMLID_1657_" style="fill:#FAFAFA;" d="M419.138,351.699c0,0-1.352-2.735-3.568-3.052c0,0-2.004,1.536-2.199,3.931
					c0,0-2.59-0.733-4.853,1.192c0,0,0.602,2.718,3.086,3.56c0,0-1.029,2.532,0.158,5.064c0,0,4.272,0.316,5.776-3.244
					c0,0,1.582,2.364,5.934,1.538c0,0,1.266-2.962-1.582-5.177c0,0,2.69-1.551,2.374-4.138
					C424.262,351.374,422.145,350.41,419.138,351.699z"/>
				<path id="XMLID_1656_" style="fill:#F0997A;" d="M416.709,353.31c-2.189,0.136-2.987,1.899-3.029,2.579
					c0,0,0.253,1.642,3.111,1.454c2.858-0.188,3.034-1.905,3.034-1.905S419.382,353.144,416.709,353.31z"/>
			</g>
			<path id="XMLID_1654_" style="fill:#FAFAFA;" d="M380.683,303.693c0,0-0.838-2.444-2.444-1.606
				c-1.606,0.838-1.047,2.374,0.349,2.724c0,0-3.003,0.978-2.165,2.584c0.838,1.606,3.422-0.07,3.981-0.908
				c0,0,0.559,2.458,2.654,1.578c2.095-0.88,0-2.981,0-2.981s3.212-1.251,1.467-2.717
				C382.778,300.899,380.683,303.693,380.683,303.693z"/>
			<path id="XMLID_413_" style="fill:#FAFAFA;" d="M331.534,309.332c0,0-0.838-2.444-2.444-1.606
				c-1.606,0.838-1.047,2.374,0.349,2.724c0,0-3.003,0.978-2.165,2.584c0.838,1.606,3.422-0.07,3.981-0.908
				c0,0,0.559,2.458,2.654,1.578c2.095-0.88,0-2.981,0-2.981s3.212-1.251,1.467-2.717
				C333.629,306.539,331.534,309.332,331.534,309.332z"/>
			<path id="XMLID_00000092424084221347592800000003232396112678361986_" style="fill:#FAFAFA;" d="M213.404,339.615
				c0,0-0.838-2.444-2.444-1.606c-1.606,0.838-1.047,2.374,0.35,2.724c0,0-3.003,0.978-2.165,2.584
				c0.838,1.606,3.422-0.07,3.981-0.908c0,0,0.559,2.458,2.654,1.578c2.095-0.88,0-2.981,0-2.981s3.212-1.251,1.467-2.717
				C215.499,336.821,213.404,339.615,213.404,339.615z"/>
			<path id="XMLID_1653_" style="fill:#FAFAFA;" d="M431.186,321.075c0,0,0.247-2.572-1.562-2.472
				c-1.809,0.1-1.935,1.729-0.807,2.625c0,0-3.139-0.351-3.039,1.458c0.1,1.809,3.145,1.35,4,0.818c0,0-0.507,2.47,1.764,2.534
				c2.272,0.064,1.232-2.715,1.232-2.715s3.442,0.188,2.458-1.868C434.248,319.397,431.186,321.075,431.186,321.075z"/>
			<path id="XMLID_1652_" style="fill:#FAFAFA;" d="M336.579,373.497c0,0,1.427-3.128,2.76-2.055
				c1.334,1.073-0.434,2.782-0.434,2.782s2.393,0.502,1.579,1.79c-0.815,1.289-2.964,0.277-2.964,0.277s0.002,2.452-1.613,1.908
				c-1.615-0.545-0.716-2.728-0.716-2.728s-2.232,0.236-2.346-1.2C332.732,372.836,335.246,372.424,336.579,373.497z"/>
		</g>
		<g id="Flowers_12_">
			<g id="XMLID_1649_">
				<path id="XMLID_1651_" style="fill:#FAFAFA;" d="M386.373,419.063c0,0-1.244-3.538-4.185-3.15c0,0-2.425,0.247-2.728,4.208
					c0,0-3.223-0.643-6.491,2.604c0,0,0.271,3.527,4.361,3.795c0,0-1.733,2.274,0.389,5.988c0,0,6.328,0.348,6.759-3.647
					c0,0,1.396,3.081,7.067,1.532c0,0,1.603-3.762-1.761-6.444c0,0,3.96-1.221,3.794-4.361
					C393.579,419.587,389.64,415.816,386.373,419.063z"/>
				<path id="XMLID_1650_" style="fill:#F0997A;" d="M383.042,420.589c-2.835,0.509-3.609,2.931-3.559,3.825
					c0,0,0.579,2.104,4.278,1.424c3.7-0.68,3.668-2.945,3.668-2.945S386.504,419.967,383.042,420.589z"/>
			</g>
			<g id="XMLID_00000152225163799971686320000014148963621688423096_">
				<path id="XMLID_812_" style="fill:#FAFAFA;" d="M429.347,390.433c0,0-1.316-2.662-3.472-2.97c0,0-1.95,1.495-2.14,3.826
					c0,0-2.521-0.713-4.724,1.16c0,0,0.585,2.645,3.003,3.465c0,0-1.001,2.464,0.154,4.928c0,0,4.158,0.308,5.621-3.157
					c0,0,1.54,2.301,5.775,1.497c0,0,1.232-2.883-1.54-5.039c0,0,2.618-1.509,2.31-4.027
					C434.335,390.116,432.273,389.178,429.347,390.433z"/>
				<path id="XMLID_00000116947311353645359680000007259276385402211718_" style="fill:#F0997A;" d="M426.983,392.001
					c-2.131,0.132-2.907,1.848-2.947,2.51c0,0,0.246,1.598,3.027,1.415c2.781-0.183,2.952-1.854,2.952-1.854
					S429.585,391.84,426.983,392.001z"/>
			</g>
			<path id="XMLID_00000131340567083147484690000002960072945173225402_" style="fill:#FAFAFA;" d="M385.867,391.425
				c0,0-0.816-2.379-2.379-1.563c-1.563,0.816-1.02,2.311,0.34,2.651c0,0-2.923,0.952-2.107,2.515
				c0.816,1.563,3.33-0.068,3.874-0.883c0,0,0.544,2.393,2.582,1.536c2.039-0.857,0-2.902,0-2.902s3.126-1.217,1.427-2.645
				C387.906,388.706,385.867,391.425,385.867,391.425z"/>
			<path id="XMLID_808_" style="fill:#FAFAFA;" d="M453.219,364.038c0,0,0.24-2.503-1.52-2.406
				c-1.761,0.096-1.883,1.683-0.786,2.554c0,0-3.055-0.341-2.958,1.42c0.097,1.76,3.061,1.314,3.893,0.796
				c0,0-0.493,2.404,1.717,2.466c2.211,0.062,1.199-2.642,1.199-2.642s3.35,0.183,2.393-1.818
				C456.199,362.405,453.219,364.038,453.219,364.038z"/>
		</g>
		<g id="Flowers_9_">
			<g id="XMLID_536_">
				<path id="XMLID_677_" style="fill:#FAFAFA;" d="M134.723,425.727c0,0-0.295-4.131-3.541-4.574c0,0-2.656-0.443-4.131,3.689
					c0,0-3.246-1.623-7.673,0.885c0,0-0.738,3.836,3.541,5.312c0,0-2.508,1.918-1.328,6.492c0,0,6.64,2.213,8.263-1.918
					c0,0,0.59,3.689,7.083,3.689c0,0,2.803-3.541,0-7.377c0,0,4.574-0.148,5.312-3.541
					C142.248,428.383,139.149,423.219,134.723,425.727z"/>
				<path id="XMLID_676_" style="fill:#F0997A;" d="M130.73,426.383c-3.169-0.283-4.698,2.072-4.905,3.039
					c0,0,0.004,2.409,4.144,2.762c4.139,0.353,4.765-2.07,4.765-2.07S134.6,426.728,130.73,426.383z"/>
			</g>
			<g id="XMLID_00000116195951091285110320000014873641828006680486_">
				<path id="XMLID_535_" style="fill:#FAFAFA;" d="M180.156,409.979c0,0-1.454-2.939-3.835-3.28c0,0-2.154,1.652-2.364,4.225
					c0,0-2.784-0.788-5.216,1.281c0,0,0.646,2.921,3.316,3.826c0,0-1.106,2.721,0.17,5.443c0,0,4.592,0.34,6.208-3.487
					c0,0,1.701,2.541,6.378,1.653c0,0,1.361-3.184-1.701-5.565c0,0,2.891-1.667,2.551-4.448
					C185.664,409.629,183.388,408.594,180.156,409.979z"/>
				<path id="XMLID_534_" style="fill:#F0997A;" d="M177.546,411.71c-2.353,0.146-3.211,2.041-3.255,2.773
					c0,0,0.272,1.764,3.344,1.562c3.072-0.202,3.26-2.047,3.26-2.047S180.419,411.532,177.546,411.71z"/>
			</g>
			<g id="XMLID_00000044139055093521096730000017149272700085085625_">
				<path id="XMLID_00000152983065182249249920000011022314256590856840_" style="fill:#FAFAFA;" d="M153.314,354.317
					c0,0-1.453-2.939-3.835-3.28c0,0-2.154,1.652-2.364,4.225c0,0-2.784-0.788-5.216,1.281c0,0,0.646,2.921,3.316,3.826
					c0,0-1.106,2.721,0.17,5.443c0,0,4.592,0.34,6.208-3.487c0,0,1.701,2.541,6.378,1.653c0,0,1.361-3.184-1.701-5.565
					c0,0,2.891-1.667,2.551-4.448C158.822,353.967,156.545,352.931,153.314,354.317z"/>
				<path id="XMLID_00000181087066196072604890000005479141828981791655_" style="fill:#F0997A;" d="M150.703,356.048
					c-2.353,0.146-3.211,2.041-3.255,2.772c0,0,0.272,1.764,3.344,1.562c3.072-0.202,3.26-2.047,3.26-2.047
					S153.576,355.87,150.703,356.048z"/>
			</g>
			<path id="XMLID_00000142171734931544178980000002164621275987696807_" style="fill:#FAFAFA;" d="M147.921,392.489
				c0,0-0.901-2.627-2.627-1.726c-1.727,0.901-1.126,2.552,0.375,2.927c0,0-3.227,1.051-2.327,2.777
				c0.901,1.726,3.678-0.075,4.279-0.976c0,0,0.6,2.643,2.852,1.697c2.252-0.946,0-3.205,0-3.205s3.453-1.344,1.576-2.921
				C150.173,389.486,147.921,392.489,147.921,392.489z"/>
			<path id="XMLID_00000108294258795793960090000007881942803646072746_" style="fill:#FAFAFA;" d="M108.115,373.254
				c0,0-0.901-2.627-2.627-1.726c-1.727,0.901-1.126,2.552,0.375,2.927c0,0-3.228,1.051-2.327,2.777
				c0.901,1.726,3.678-0.075,4.279-0.976c0,0,0.6,2.643,2.852,1.697c2.252-0.946,0-3.205,0-3.205s3.453-1.344,1.576-2.921
				C110.367,370.252,108.115,373.254,108.115,373.254z"/>
			<path id="XMLID_00000083070528580716782200000000918046177521524159_" style="fill:#FAFAFA;" d="M189.731,371.368
				c0,0-0.901-2.627-2.627-1.726c-1.727,0.901-1.126,2.552,0.375,2.927c0,0-3.227,1.051-2.327,2.777
				c0.901,1.726,3.678-0.075,4.279-0.976c0,0,0.6,2.643,2.852,1.697c2.252-0.946,0-3.205,0-3.205s3.453-1.344,1.576-2.921
				C191.983,368.366,189.731,371.368,189.731,371.368z"/>
			<path id="XMLID_00000127754565580761517240000004527708438648985269_" style="fill:#FAFAFA;" d="M152.633,325.659
				c0,0-0.901-2.627-2.627-1.726c-1.727,0.901-1.126,2.552,0.375,2.927c0,0-3.227,1.051-2.327,2.777
				c0.901,1.726,3.678-0.075,4.279-0.976c0,0,0.6,2.643,2.852,1.697c2.252-0.946,0-3.205,0-3.205s3.453-1.344,1.576-2.921
				C154.885,322.657,152.633,325.659,152.633,325.659z"/>
			<path id="XMLID_502_" style="fill:#FAFAFA;" d="M174.987,448.637c0,0,0.265-2.765-1.679-2.658
				c-1.944,0.107-2.08,1.859-0.868,2.821c0,0-3.374-0.377-3.267,1.568c0.107,1.944,3.38,1.451,4.299,0.879
				c0,0-0.545,2.654,1.896,2.723c2.441,0.069,1.324-2.918,1.324-2.918s3.7,0.202,2.642-2.008
				C178.278,446.833,174.987,448.637,174.987,448.637z"/>
			<path id="XMLID_294_" style="fill:#FAFAFA;" d="M224.727,451.394c0,0,3.537-1.122,3.643,0.723
				c0.106,1.845-2.542,1.666-2.542,1.666s1.331,2.28-0.291,2.56c-1.622,0.281-2.368-2.172-2.368-2.172s-1.962,1.776-2.695,0.09
				c-0.732-1.687,1.666-2.548,1.666-2.548s-1.804-1.616-0.737-2.747C222.471,447.834,224.621,449.549,224.727,451.394z"/>
			<path id="XMLID_00000139982988532251568390000002073831895465494972_" style="fill:#FAFAFA;" d="M53.437,383.802
				c0,0,3.537-1.122,3.643,0.723c0.106,1.845-2.542,1.666-2.542,1.666s1.331,2.28-0.291,2.56c-1.622,0.281-2.368-2.172-2.368-2.172
				s-1.962,1.776-2.695,0.089c-0.733-1.687,1.666-2.548,1.666-2.548s-1.804-1.616-0.737-2.747
				C51.181,380.242,53.331,381.957,53.437,383.802z"/>
			<path id="XMLID_498_" style="fill:#FAFAFA;" d="M91.277,409.994c0,0-2.231-2.946-0.536-3.66c1.696-0.714,2.41,1.83,2.41,1.83
				s1.696-2.008,2.499-0.58c0.803,1.428-1.25,2.946-1.25,2.946s2.321,1.25,0.982,2.499c-1.339,1.25-2.946-0.714-2.946-0.714
				s-0.915,2.232-2.332,1.607C88.688,413.297,89.581,410.708,91.277,409.994z"/>
		</g>
	</g>
</g>
<g id="Shadow">
	<path id="Shadow_00000180364122826735091380000008357394678891496325_" style="opacity:0.3;fill:#BA68C8;" d="M237.77,428.223
		c31.283,7.515,47.579,35.374,83.991,27.848c12.806-1.96,29.855-12.751,17.742-24.247c-22.455-16.056-51.904-9.019-76.829-20.64
		c-8.958-3.819-18.074-10.877-27.305-13.918c-9.877-2.799-20.596-4.108-30.123,0.682c-2.367,0.998-6.183,3.73-5.313,9.445
		C201.93,420.525,226.613,424.827,237.77,428.223z"/>
</g>
<g id="Clouds">
	<path id="Cloud_16_" style="fill:#F5F5F5;" d="M443.203,122.026c-0.106-3.835,4.008-6.628,8.753-7.222
		c5.592-0.7,9.646,1.679,9.914,6.091c3.621-1.617,7.517-0.769,7.35,3.271c0.92-1.129,4.491-1.207,5.781-0.939
		c1.363,0.283,2.773,1.46,3.277,2.625c0.408,0.942,0.441,1.382,0.395,2.054c2.117-0.766,6.966-1.342,8.241,0.582
		c2.271,3.425-6.373,3.798-8.149,2.796c-2.614,4.406-11.449,4.051-13.297,0.785c-1.704,1.824-3.707,2.622-6.428,2.867
		c-4.589,0.413-8.6-0.603-10.203-2.876c-3.799,3.425-10.544,3.691-14.172,0.016c-0.871,0.873-3.332,1.21-5.325,0.798
		c-1.308-0.271-1.625-0.815-1.625-0.815c-0.686,0.343-1.508,0.583-2.363,0.789c-2.533,0.612-7.293,0.193-5.373-2.164
		c0.654-0.802,3.12-1.373,4.179-1.164c1.045-2.222,5.446-4.43,8.063-2.658c0.018-2.653,2.378-4.799,5.771-5.43
		C439.129,121.221,441.867,120.984,443.203,122.026z"/>
	<path id="Cloud_00000111156915239735883030000012080038980032796292_" style="fill:#F5F5F5;" d="M273.319,51.651
		c-0.15-5.45,5.695-9.419,12.439-10.262c7.946-0.994,13.708,2.386,14.089,8.656c5.146-2.298,10.682-1.093,10.445,4.649
		c1.308-1.604,6.382-1.715,8.215-1.334c1.938,0.402,3.94,2.075,4.657,3.73c0.58,1.338,0.627,1.965,0.561,2.918
		c3.009-1.088,9.899-1.908,11.712,0.827c3.227,4.867-9.057,5.397-11.581,3.973c-3.715,6.261-16.27,5.757-18.896,1.115
		c-2.422,2.592-5.268,3.725-9.134,4.074c-6.522,0.588-12.221-0.857-14.5-4.088c-5.398,4.867-14.983,5.245-20.14,0.023
		c-1.238,1.241-4.735,1.72-7.567,1.134c-1.859-0.384-2.31-1.158-2.31-1.158c-0.975,0.488-2.144,0.828-3.359,1.122
		c-3.6,0.869-10.364,0.274-7.636-3.076c0.929-1.14,4.434-1.952,5.939-1.654c1.486-3.157,7.739-6.295,11.458-3.778
		c0.026-3.77,3.379-6.82,8.201-7.716C267.53,50.507,271.42,50.17,273.319,51.651z"/>
	<path id="Cloud_15_" style="fill:#F5F5F5;" d="M171.899,36.599c-0.153-4.507,4.661-7.82,10.234-8.554
		c6.567-0.864,11.35,1.902,11.699,7.086c4.244-1.928,8.83-0.96,8.663,3.79c1.073-1.333,5.269-1.452,6.787-1.147
		c1.605,0.323,3.27,1.696,3.872,3.061c0.486,1.104,0.529,1.622,0.48,2.411c2.483-0.916,8.177-1.63,9.691,0.622
		c2.695,4.009-7.462,4.511-9.558,3.347c-0.316,3.208-11.218,4.134-13.97,1.286c-1.706,2.85-5.527,3.743-8.722,4.052
		c-5.391,0.52-9.869-1.233-12.478-4.203c-4.439,4.054-12.366,4.417-16.658,0.124c-1.017,1.033-3.907,1.448-6.253,0.978
		c-1.54-0.308-1.917-0.946-1.917-0.946c-0.803,0.408-1.769,0.696-2.772,0.945c-2.973,0.738-8.571,0.281-6.331-2.504
		c0.762-0.948,3.657-1.638,4.903-1.399c1.212-2.619,6.368-5.247,9.458-3.185c0.002-3.118,2.759-5.659,6.743-6.425
		C167.104,35.683,170.32,35.383,171.899,36.599z"/>
</g>
<g id="Sun_2">
	<g id="Sun">
		<g>
			
				<ellipse id="Sun_1_" transform="matrix(0.1602 -0.9871 0.9871 0.1602 263.6065 451.6337)" style="fill:#FFBDA7;" cx="397.219" cy="70.901" rx="27.614" ry="27.614"/>
			<g>
				<path style="fill:#FFBDA7;" d="M397.219,38.334c-0.345,0-0.625-0.28-0.625-0.625V26.271c0-0.345,0.28-0.625,0.625-0.625
					c0.345,0,0.625,0.28,0.625,0.625v11.439C397.844,38.055,397.564,38.334,397.219,38.334z"/>
			</g>
			<g>
				<path style="fill:#FFBDA7;" d="M380.624,42.781c-0.217,0-0.427-0.112-0.542-0.313l-5.72-9.907
					c-0.173-0.299-0.07-0.681,0.229-0.854c0.302-0.173,0.683-0.069,0.853,0.229l5.72,9.907c0.173,0.299,0.07,0.681-0.229,0.854
					C380.837,42.754,380.73,42.781,380.624,42.781z"/>
			</g>
			<g>
				<path style="fill:#FFBDA7;" d="M368.474,54.93c-0.105,0-0.213-0.027-0.311-0.084l-9.906-5.72
					c-0.299-0.172-0.401-0.555-0.229-0.854c0.171-0.298,0.551-0.403,0.854-0.229l9.906,5.72c0.299,0.172,0.401,0.555,0.228,0.854
					C368.901,54.818,368.69,54.93,368.474,54.93z"/>
			</g>
			<g>
				<path style="fill:#FFBDA7;" d="M364.028,71.526h-11.439c-0.345,0-0.625-0.28-0.625-0.625s0.28-0.625,0.625-0.625h11.439
					c0.345,0,0.625,0.28,0.625,0.625S364.373,71.526,364.028,71.526z"/>
			</g>
			<g>
				<path style="fill:#FFBDA7;" d="M358.569,93.841c-0.217,0-0.427-0.112-0.542-0.313c-0.173-0.299-0.07-0.681,0.229-0.854
					l9.906-5.72c0.302-0.174,0.682-0.069,0.853,0.229c0.173,0.299,0.07,0.681-0.228,0.854l-9.906,5.72
					C358.782,93.814,358.675,93.841,358.569,93.841z"/>
			</g>
			<g>
				<path style="fill:#FFBDA7;" d="M374.902,110.177c-0.105,0-0.213-0.027-0.312-0.084c-0.299-0.173-0.401-0.555-0.229-0.854
					l5.72-9.907c0.171-0.299,0.551-0.403,0.854-0.229c0.299,0.173,0.401,0.555,0.229,0.854l-5.72,9.907
					C375.329,110.065,375.119,110.177,374.902,110.177z"/>
			</g>
			<g>
				<path style="fill:#FFBDA7;" d="M397.219,116.156c-0.345,0-0.625-0.28-0.625-0.625v-11.44c0-0.345,0.28-0.625,0.625-0.625
					c0.345,0,0.625,0.28,0.625,0.625v11.44C397.844,115.877,397.564,116.156,397.219,116.156z"/>
			</g>
			<g>
				<path style="fill:#FFBDA7;" d="M419.535,110.177c-0.217,0-0.427-0.112-0.542-0.313l-5.72-9.907
					c-0.173-0.299-0.07-0.681,0.229-0.854c0.302-0.173,0.683-0.069,0.853,0.229l5.72,9.907c0.173,0.299,0.07,0.681-0.228,0.854
					C419.748,110.15,419.641,110.177,419.535,110.177z"/>
			</g>
			<g>
				<path style="fill:#FFBDA7;" d="M435.869,93.841c-0.105,0-0.213-0.027-0.312-0.083l-9.907-5.72
					c-0.299-0.173-0.401-0.555-0.229-0.854c0.171-0.298,0.551-0.403,0.854-0.229l9.907,5.72c0.299,0.173,0.401,0.555,0.228,0.854
					C436.296,93.729,436.086,93.841,435.869,93.841z"/>
			</g>
			<g>
				<path style="fill:#FFBDA7;" d="M441.85,71.526H430.41c-0.345,0-0.625-0.28-0.625-0.625s0.28-0.625,0.625-0.625h11.439
					c0.345,0,0.625,0.28,0.625,0.625S442.194,71.526,441.85,71.526z"/>
			</g>
			<g>
				<path style="fill:#FFBDA7;" d="M425.964,54.93c-0.217,0-0.427-0.112-0.542-0.313c-0.173-0.299-0.07-0.681,0.229-0.854
					l9.907-5.72c0.302-0.173,0.683-0.069,0.853,0.229c0.173,0.299,0.07,0.681-0.228,0.854l-9.907,5.72
					C426.177,54.903,426.069,54.93,425.964,54.93z"/>
			</g>
			<g>
				<path style="fill:#FFBDA7;" d="M413.814,42.781c-0.105,0-0.213-0.027-0.311-0.083c-0.299-0.173-0.401-0.555-0.229-0.854
					l5.72-9.907c0.171-0.299,0.552-0.403,0.854-0.229c0.299,0.173,0.401,0.555,0.228,0.854l-5.72,9.907
					C414.24,42.669,414.03,42.781,413.814,42.781z"/>
			</g>
		</g>
		<g>
			<g>
				<path style="fill:#F0997A;" d="M391.711,64.104c-0.603-1.333-1.857-2.506-3.114-2.88c-1.147-0.341-2.337-0.445-3.501-0.162
					c-1.081,0.262-2.143,0.718-2.953,1.615c-0.771,0.854-1.276,1.83-1.835,2.863c-0.054,0.101-0.012,0.493,0.134,0.337
					c0.68-0.731,1.627-1.292,2.486-1.695c0.92-0.432,1.908-0.87,2.899-0.991c0.764-0.093,1.518-0.073,2.266,0.139
					c0.584,0.165,1.201,0.308,1.762,0.569c0.515,0.24,0.972,0.633,1.438,0.977C391.733,65.198,391.861,64.436,391.711,64.104z"/>
				<path style="fill:#F0997A;" d="M402.727,64.104c0.603-1.333,1.857-2.506,3.114-2.88c1.148-0.341,2.337-0.445,3.501-0.162
					c1.081,0.262,2.143,0.718,2.953,1.615c0.771,0.854,1.276,1.83,1.835,2.863c0.054,0.101,0.012,0.493-0.134,0.337
					c-0.68-0.731-1.627-1.292-2.486-1.695c-0.92-0.432-1.908-0.87-2.899-0.991c-0.764-0.093-1.518-0.073-2.266,0.139
					c-0.584,0.165-1.201,0.308-1.762,0.569c-0.515,0.24-0.972,0.633-1.438,0.977C402.706,65.198,402.577,64.436,402.727,64.104z"/>
			</g>
			<g>
				<g>
					<path style="fill:#F0997A;" d="M397.219,82.044c-7.016,0-13.505-3.812-16.934-9.947l0.718-0.401
						c3.283,5.875,9.497,9.525,16.215,9.525c6.719,0,12.933-3.65,16.216-9.525l0.718,0.401
						C410.725,78.232,404.236,82.044,397.219,82.044z"/>
				</g>
				<g>
					<path style="fill:#F0997A;" d="M415.172,72.978c-0.125-0.209-0.277-0.398-0.439-0.58c-0.265-0.297-0.578-0.605-0.936-0.789
						c-0.293-0.15-0.621-0.291-0.935-0.394c-0.159-0.052-0.329-0.114-0.497-0.131c-0.177-0.019-0.376,0.002-0.554,0.011
						c-0.223,0.011-0.208,0.471-0.023,0.532c0.32,0.105,0.629,0.264,0.93,0.415c0.137,0.069,0.269,0.142,0.392,0.225
						c0.071,0.048,0.132,0.1,0.193,0.16c0.04,0.039,0.079,0.078,0.118,0.119c0.008,0.008,0.008,0.008,0.012,0.012
						c-0.001,0-0.001,0.002,0.007,0.014c0.044,0.064,0.128,0.135,0.176,0.179c0.007,0.007,0.035,0.032,0.054,0.049
						c0.016,0.016,0.032,0.032,0.034,0.033c0.029,0.029,0.056,0.058,0.084,0.088c0.055,0.059,0.109,0.12,0.161,0.183
						c0.009,0.011,0.019,0.023,0.028,0.035c0.005,0.007,0.014,0.02,0.03,0.042c0.091,0.128,0.181,0.259,0.265,0.392
						c0.041,0.065,0.081,0.132,0.118,0.199c0.121,0.219,0.287,0.369,0.493,0.512c0.118,0.083,0.363,0.098,0.455-0.039
						C415.656,73.772,415.408,73.372,415.172,72.978z"/>
				</g>
				<g>
					<path style="fill:#F0997A;" d="M379.041,72.978c0.125-0.209,0.277-0.398,0.439-0.58c0.265-0.297,0.578-0.605,0.936-0.789
						c0.293-0.15,0.621-0.291,0.935-0.394c0.159-0.052,0.329-0.114,0.497-0.131c0.177-0.019,0.376,0.002,0.554,0.011
						c0.223,0.011,0.208,0.471,0.023,0.532c-0.32,0.105-0.629,0.264-0.93,0.415c-0.137,0.069-0.269,0.142-0.392,0.225
						c-0.071,0.048-0.132,0.1-0.193,0.16c-0.04,0.039-0.079,0.078-0.118,0.119c-0.008,0.008-0.008,0.008-0.012,0.012
						c0.001,0,0.001,0.002-0.007,0.014c-0.044,0.064-0.128,0.135-0.176,0.179c-0.007,0.007-0.035,0.032-0.054,0.049
						c-0.016,0.016-0.032,0.032-0.034,0.033c-0.029,0.029-0.056,0.058-0.084,0.088c-0.055,0.059-0.109,0.12-0.161,0.183
						c-0.009,0.011-0.019,0.023-0.028,0.035c-0.005,0.007-0.014,0.02-0.03,0.042c-0.091,0.128-0.181,0.259-0.265,0.392
						c-0.041,0.065-0.081,0.132-0.118,0.199c-0.121,0.219-0.287,0.369-0.493,0.512c-0.118,0.083-0.363,0.098-0.455-0.039
						C378.557,73.772,378.804,73.372,379.041,72.978z"/>
				</g>
			</g>
		</g>
	</g>
</g>
<g id="Lines">
	<g id="Thinking">
		<g>
			<path style="opacity:0.6;fill:#FFFFFF;" d="M298.784,116.086l-4.777,57.948c-7.591,16.335-9.974,29.899-26.307,37.126
				c-16.333,7.227-24.427,0.289-40.326,17.344s-13.586,46.091-32.954,62.793c-19.368,16.702-31.781,4.302-58.384,21.053
				c-26.603,16.751-22.248,41.71-57.245,50.875c-22.983,6.018-33.648-4.25-52.873-3.915C10.781,359.573,0,369.243,0,369.243V45.233
				c0,0,39.242-21.697,76.768-8.03c26.016,9.475,28.341,25.906,53.387,35.791c18.239,6.516,53.449-6.116,74.414,2.619
				c20.965,8.735,18.68,21.782,37.629,27.623S274.466,96.89,298.784,116.086z"/>
			<path style="fill:#BA68C8;" d="M293.573,173.699c-3.743,9.841-7.719,20.072-14.894,27.983c-3.719,4.1-8.275,7.121-13.452,9.059
				c-5.572,2.086-11.498,2.945-17.254,4.356c-5.378,1.318-10.594,3.205-15.077,6.528c-4.017,2.977-7.331,6.762-10.06,10.935
				c-5.715,8.739-8.907,18.69-12.364,28.454c-3.47,9.799-7.467,19.932-14.709,27.613c-3.762,3.99-8.329,6.983-13.466,8.899
				c-5.589,2.085-11.543,2.988-17.401,3.959c-5.783,0.959-11.534,2.021-17.054,4.048c-5.47,2.01-10.648,4.78-15.342,8.234
				c-4.716,3.471-8.826,7.599-12.503,12.146c-3.717,4.596-7.046,9.487-10.665,14.158c-3.539,4.569-7.385,8.945-11.992,12.47
				c-4.187,3.204-8.855,5.774-13.78,7.652c-9.753,3.719-20.755,4.739-31.012,2.734c-2.659-0.52-5.305-1.175-7.916-1.897
				c-0.445-0.123-0.372,0.788-0.072,0.932c9.686,4.631,21.357,4.939,31.72,2.719c10.421-2.233,20.192-7.323,27.768-14.846
				c8.601-8.541,14.342-19.464,22.85-28.087c8.384-8.498,19.161-14.194,30.798-16.71c11.34-2.451,23.686-2.795,33.612-9.488
				c8.73-5.886,14.06-15.348,17.993-24.866c7.675-18.573,11.89-43.452,33.069-51.564c10.709-4.102,22.878-3.881,32.301-11.111
				c8.491-6.515,13.16-16.63,16.784-26.416c0.923-2.493,1.729-5.031,2.551-7.559C294.109,173.719,293.744,173.251,293.573,173.699z"
				/>
			<path style="opacity:0.4;fill:#FFFFFF;" d="M293.573,173.699c-3.743,9.841-7.719,20.072-14.894,27.983
				c-3.719,4.1-8.275,7.121-13.452,9.059c-5.572,2.086-11.498,2.945-17.254,4.356c-5.378,1.318-10.594,3.205-15.077,6.528
				c-4.017,2.977-7.331,6.762-10.06,10.935c-5.715,8.739-8.907,18.69-12.364,28.454c-3.47,9.799-7.467,19.932-14.709,27.613
				c-3.762,3.99-8.329,6.983-13.466,8.899c-5.589,2.085-11.543,2.988-17.401,3.959c-5.783,0.959-11.534,2.021-17.054,4.048
				c-5.47,2.01-10.648,4.78-15.342,8.234c-4.716,3.471-8.826,7.599-12.503,12.146c-3.717,4.596-7.046,9.487-10.665,14.158
				c-3.539,4.569-7.385,8.945-11.992,12.47c-4.187,3.204-8.855,5.774-13.78,7.652c-9.753,3.719-20.755,4.739-31.012,2.734
				c-2.659-0.52-5.305-1.175-7.916-1.897c-0.445-0.123-0.372,0.788-0.072,0.932c9.686,4.631,21.357,4.939,31.72,2.719
				c10.421-2.233,20.192-7.323,27.768-14.846c8.601-8.541,14.342-19.464,22.85-28.087c8.384-8.498,19.161-14.194,30.798-16.71
				c11.34-2.451,23.686-2.795,33.612-9.488c8.73-5.886,14.06-15.348,17.993-24.866c7.675-18.573,11.89-43.452,33.069-51.564
				c10.709-4.102,22.878-3.881,32.301-11.111c8.491-6.515,13.16-16.63,16.784-26.416c0.923-2.493,1.729-5.031,2.551-7.559
				C294.109,173.719,293.744,173.251,293.573,173.699z"/>
			<path style="fill:#BA68C8;" d="M299.013,115.182c-7.159-6.687-16.828-10.451-26.474-11.59
				c-10.225-1.207-20.851,1.614-30.899-1.182c-9.082-2.527-14.696-10.306-20.871-16.833c-3.068-3.243-6.379-6.227-10.279-8.443
				c-4.013-2.279-8.426-3.752-12.945-4.631c-20.105-3.907-40.223,3.944-60.345,0.97c-9.815-1.451-18.085-6.174-25.651-12.397
				c-6.919-5.69-13.202-12.149-20.495-17.384c-7.735-5.552-16.489-9.01-25.876-10.538c-9.709-1.58-19.67-1.07-29.377,0.254
				c-2.413,0.329-4.805,0.727-7.191,1.21c-0.366,0.074-0.263,0.884,0.11,0.836c19.701-2.531,41.041-3.601,58.51,7.561
				c14.869,9.5,25.575,25.396,42.98,30.802c19.63,6.097,40.024-1.525,59.98-0.229c9.355,0.608,18.46,3.245,25.556,9.602
				c6.369,5.706,11.117,13.126,18.354,17.866c8.447,5.533,18.535,4.736,28.158,4.398c5.038-0.177,10.044-0.072,14.994,0.973
				c5.44,1.148,10.621,3.186,15.476,5.882c2.075,1.152,4.088,2.45,6.057,3.776C299.251,116.4,299.257,115.41,299.013,115.182z"/>
			<path style="opacity:0.4;fill:#FFFFFF;" d="M299.013,115.182c-7.159-6.687-16.828-10.451-26.474-11.59
				c-10.225-1.207-20.851,1.614-30.899-1.182c-9.082-2.527-14.696-10.306-20.871-16.833c-3.068-3.243-6.379-6.227-10.279-8.443
				c-4.013-2.279-8.426-3.752-12.945-4.631c-20.105-3.907-40.223,3.944-60.345,0.97c-9.815-1.451-18.085-6.174-25.651-12.397
				c-6.919-5.69-13.202-12.149-20.495-17.384c-7.735-5.552-16.489-9.01-25.876-10.538c-9.709-1.58-19.67-1.07-29.377,0.254
				c-2.413,0.329-4.805,0.727-7.191,1.21c-0.366,0.074-0.263,0.884,0.11,0.836c19.701-2.531,41.041-3.601,58.51,7.561
				c14.869,9.5,25.575,25.396,42.98,30.802c19.63,6.097,40.024-1.525,59.98-0.229c9.355,0.608,18.46,3.245,25.556,9.602
				c6.369,5.706,11.117,13.126,18.354,17.866c8.447,5.533,18.535,4.736,28.158,4.398c5.038-0.177,10.044-0.072,14.994,0.973
				c5.44,1.148,10.621,3.186,15.476,5.882c2.075,1.152,4.088,2.45,6.057,3.776C299.251,116.4,299.257,115.41,299.013,115.182z"/>
		</g>
		<g>
			<g>
				<path style="fill:#BA68C8;" d="M252.041,153.246c-4.899,3.329-9.946,6.152-15.754,7.523c-5.545,1.309-11.288,1.558-16.957,1.162
					c-12.94-0.903-25.236-5.437-37.812-8.259c-6.433-1.444-12.971-2.452-19.577-2.437c-7.23,0.016-14.409,1.093-21.502,2.41
					c-13.584,2.522-27.29,5.964-41.215,4.687c-3.584-0.329-7.14-0.994-10.579-2.063c-3.41-1.059-6.706-2.456-10.025-3.762
					c-5.97-2.349-12.511-4.622-18.974-3.099c-0.265,0.062-0.149,0.639,0.121,0.597c6.323-0.976,12.293,0.925,18.088,3.286
					c6.168,2.512,12.128,5.146,18.765,6.174c13.709,2.123,27.495-0.938,40.922-3.477c7.12-1.347,14.304-2.609,21.559-2.888
					c6.943-0.267,13.798,0.529,20.581,1.983c12.674,2.717,24.997,7.298,37.967,8.51c6.277,0.587,12.708,0.436,18.873-0.97
					c5.93-1.352,12.098-3.795,16.141-8.511C252.934,153.792,252.439,152.975,252.041,153.246z"/>
				<path style="opacity:0.4;fill:#FFFFFF;" d="M252.041,153.246c-4.899,3.329-9.946,6.152-15.754,7.523
					c-5.545,1.309-11.288,1.558-16.957,1.162c-12.94-0.903-25.236-5.437-37.812-8.259c-6.433-1.444-12.971-2.452-19.577-2.437
					c-7.23,0.016-14.409,1.093-21.502,2.41c-13.584,2.522-27.29,5.964-41.215,4.687c-3.584-0.329-7.14-0.994-10.579-2.063
					c-3.41-1.059-6.706-2.456-10.025-3.762c-5.97-2.349-12.511-4.622-18.974-3.099c-0.265,0.062-0.149,0.639,0.121,0.597
					c6.323-0.976,12.293,0.925,18.088,3.286c6.168,2.512,12.128,5.146,18.765,6.174c13.709,2.123,27.495-0.938,40.922-3.477
					c7.12-1.347,14.304-2.609,21.559-2.888c6.943-0.267,13.798,0.529,20.581,1.983c12.674,2.717,24.997,7.298,37.967,8.51
					c6.277,0.587,12.708,0.436,18.873-0.97c5.93-1.352,12.098-3.795,16.141-8.511C252.934,153.792,252.439,152.975,252.041,153.246z
					"/>
			</g>
			<g>
				<path style="fill:#BA68C8;" d="M202.799,213.247c-4.027,3.947-9.398,6.613-14.637,8.588c-5.375,2.026-10.992,3.279-16.574,4.577
					c-5.815,1.352-11.653,2.738-17.17,5.066c-5.136,2.167-9.679,5.204-13.797,8.946c-8.203,7.454-14.554,16.863-23.815,23.149
					c-4.87,3.306-10.287,5.78-15.983,7.27c-5.737,1.501-11.64,1.847-17.548,1.793c-12.697-0.116-26.855-2.36-38.471,4.087
					c-0.476,0.264,0.063,1.186,0.552,0.98c11.227-4.736,23.382-3.713,35.256-3.412c5.926,0.15,11.896,0.082,17.736-1.047
					c5.644-1.091,11.118-3.122,16.12-5.953c10.022-5.673,16.852-14.793,24.849-22.803c4.067-4.073,8.54-7.742,13.744-10.268
					c5.386-2.614,11.218-4.178,17.007-5.609c6.249-1.545,12.543-2.967,18.529-5.385c2.689-1.086,5.32-2.37,7.756-3.947
					c2.409-1.56,4.603-3.689,6.535-5.803C202.951,213.407,202.897,213.151,202.799,213.247z"/>
				<path style="opacity:0.4;fill:#FFFFFF;" d="M202.799,213.247c-4.027,3.947-9.398,6.613-14.637,8.588
					c-5.375,2.026-10.992,3.279-16.574,4.577c-5.815,1.352-11.653,2.738-17.17,5.066c-5.136,2.167-9.679,5.204-13.797,8.946
					c-8.203,7.454-14.554,16.863-23.815,23.149c-4.87,3.306-10.287,5.78-15.983,7.27c-5.737,1.501-11.64,1.847-17.548,1.793
					c-12.697-0.116-26.855-2.36-38.471,4.087c-0.476,0.264,0.063,1.186,0.552,0.98c11.227-4.736,23.382-3.713,35.256-3.412
					c5.926,0.15,11.896,0.082,17.736-1.047c5.644-1.091,11.118-3.122,16.12-5.953c10.022-5.673,16.852-14.793,24.849-22.803
					c4.067-4.073,8.54-7.742,13.744-10.268c5.386-2.614,11.218-4.178,17.007-5.609c6.249-1.545,12.543-2.967,18.529-5.385
					c2.689-1.086,5.32-2.37,7.756-3.947c2.409-1.56,4.603-3.689,6.535-5.803C202.951,213.407,202.897,213.151,202.799,213.247z"/>
			</g>
		</g>
	</g>
</g>
<g id="Sun_1">
	<g>
		<g id="XMLID_1124_">
			<path id="XMLID_2830_" style="fill:#BA68C8;" d="M211.246,134.58c0-7.264,3.488-16.25,14.175-15.252
				c7.232,0.675,13.27,6.604,13.27,13.868c0,7.264-6.843,14.178-14.107,14.178C217.321,147.374,211.246,141.844,211.246,134.58z"/>
		</g>
		<g id="XMLID_00000080203298313778142110000006995539408022135188_" style="opacity:0.7;">
			<path id="XMLID_00000042000096592403322710000009157855090242049701_" style="fill:#FFFFFF;" d="M211.246,134.58
				c0-7.264,3.488-16.25,14.175-15.252c7.232,0.675,13.27,6.604,13.27,13.868c0,7.264-6.843,14.178-14.107,14.178
				C217.321,147.374,211.246,141.844,211.246,134.58z"/>
		</g>
		<g id="XMLID_00000033366405143249772710000014724847843250091909_">
			<g id="XMLID_00000010295156399659512820000017176105865286846911_">
				<g id="XMLID_00000030485453588241130370000005796560443450286769_">
					<path id="XMLID_2697_" style="fill:#455A64;" d="M213.838,125.03c5.689-8.584,19.557-5.309,22.794,3.648
						c3.104,8.588-2.506,16.839-11.416,17.434c-1.864,0.124-3.768-0.012-5.562-0.554c-1.789-0.54-3.005-1.535-4.313-2.84
						c-2.16-2.156-2.983-5.182-3.162-8.153c-0.082-1.363,0.01-2.735-0.145-4.091c-0.017-0.15-0.047-0.318-0.171-0.406
						c-0.258-0.183-0.571,0.147-0.701,0.436c-0.917,2.027-0.657,5.494-0.154,7.66c1.291,5.562,6.13,9.462,11.945,9.768
						c10.175,0.535,18.505-7.623,15.99-18.087c-1.477-6.143-6.467-10.374-12.725-11.07c-4.451-0.496-10.945,1.297-12.696,5.88
						C213.462,124.817,213.67,125.283,213.838,125.03z"/>
				</g>
			</g>
			<g id="XMLID_00000075861410484485536020000007687924995568357560_">
				<g id="XMLID_00000053538027597745441320000010165479786046715583_">
					<path id="XMLID_2694_" style="fill:#455A64;" d="M226.47,113.503c0.274-1.565,0.371-3.265,0.26-4.85
						c-0.035-0.506-0.985-0.957-1.027-0.273c-0.102,1.632,0.009,3.349,0.259,4.963C225.997,113.566,226.406,113.87,226.47,113.503
						L226.47,113.503z"/>
				</g>
			</g>
			<g id="XMLID_00000146479467729680890290000002295758623830905520_">
				<g id="XMLID_1192_">
					<path id="XMLID_2691_" style="fill:#455A64;" d="M236.334,118.54c0.545-0.515,0.927-1.245,1.325-1.875
						c0.456-0.721,0.948-1.418,1.418-2.13c0.29-0.44-0.463-1.161-0.772-0.727c-0.902,1.265-2.027,2.863-2.292,4.42
						C235.984,118.4,236.14,118.724,236.334,118.54L236.334,118.54z"/>
				</g>
			</g>
			<g id="XMLID_00000124876978654933631020000016818315586827973049_">
				<g id="XMLID_1352_">
					<path id="XMLID_2688_" style="fill:#455A64;" d="M242.51,127.312c0.36,0.039,0.64-0.148,0.966-0.274
						c0.492-0.191,1.004-0.335,1.505-0.498c0.925-0.301,2.088-0.587,2.746-1.359c0.302-0.355-0.302-1.07-0.685-0.792
						c-0.859,0.624-1.725,0.992-2.728,1.338c-0.709,0.245-1.852,0.527-1.906,1.414C242.406,127.207,242.433,127.304,242.51,127.312
						L242.51,127.312z"/>
				</g>
			</g>
			<g id="XMLID_1163_">
				<g id="XMLID_1364_">
					<path id="XMLID_2685_" style="fill:#455A64;" d="M241.59,137.868c-0.002-0.209-0.003-0.418-0.005-0.627
						c-0.098,0.098-0.196,0.195-0.295,0.293c0.241,0.501,1.111,0.706,1.594,0.885c0.994,0.367,2.035,0.581,3.01,1.005
						c0.728,0.316,0.86-0.649,0.233-0.935c-1.395-0.636-3.003-0.988-4.479-1.425C241.116,136.906,241.23,137.712,241.59,137.868
						L241.59,137.868z"/>
				</g>
			</g>
			<g id="XMLID_00000144316972710455893020000008320068957871583925_">
				<g id="XMLID_1371_">
					<path id="XMLID_2682_" style="fill:#455A64;" d="M231.836,150.441c0.267,0.931,0.856,1.911,1.398,2.709
						c0.458,0.674,1.055,1.477,1.902,1.644c0.605,0.119,0.946-0.517,0.441-0.916c-0.642-0.508-1.085-0.968-1.536-1.673
						c-0.447-0.7-0.822-1.514-1.432-2.089C232.331,149.851,231.7,149.967,231.836,150.441L231.836,150.441z"/>
				</g>
			</g>
			<g id="XMLID_00000138535752111248963850000013892624112461587108_">
				<g id="XMLID_1378_">
					<path id="XMLID_2679_" style="fill:#455A64;" d="M220.846,151.386c-0.217,0.895-0.163,1.861-0.18,2.779
						c-0.015,0.806-0.165,1.386,0.429,1.973c0.083,0.082,0.182,0.132,0.288,0.059c0.64-0.438,0.419-1.13,0.405-1.845
						c-0.018-0.908,0.03-1.865-0.184-2.75C221.534,151.319,220.959,150.919,220.846,151.386L220.846,151.386z"/>
				</g>
			</g>
			<g id="XMLID_00000177469584111025113490000015432013785590058901_">
				<g id="XMLID_1385_">
					<path id="XMLID_2676_" style="fill:#455A64;" d="M210.03,147.635c-0.914-0.006-1.82,0.581-2.581,1.025
						c-0.893,0.522-1.781,1.085-2.625,1.684c-0.562,0.399,0.363,1.146,0.867,0.844c1.537-0.921,2.981-2.236,4.753-2.682
						C210.971,148.374,210.373,147.637,210.03,147.635L210.03,147.635z"/>
				</g>
			</g>
			<g id="XMLID_00000143613089894978170610000011827465918679486594_">
				<g id="XMLID_1392_">
					<path id="XMLID_2673_" style="fill:#455A64;" d="M202.276,136.455c1.862,0.249,3.784-0.156,5.649-0.239
						c0.812-0.036,0.538-1.152-0.166-1.171c-1.884-0.051-3.762,0.361-5.646,0.414C201.434,135.477,201.771,136.387,202.276,136.455
						L202.276,136.455z"/>
				</g>
			</g>
			<g id="XMLID_00000099635704471088349110000014600596515769643681_">
				<g id="XMLID_1399_">
					<path id="XMLID_2670_" style="fill:#455A64;" d="M201.699,123.738c2.177,0.097,4.184,0.713,6.313,1.102
						c0.829,0.152,0.901-0.916,0.147-1.045c-2.203-0.375-4.495-1.268-6.753-0.882C200.941,122.993,201.37,123.724,201.699,123.738
						L201.699,123.738z"/>
				</g>
			</g>
			<g id="XMLID_00000155147881601462935340000000843648752607019150_">
				<g id="XMLID_1413_">
					<path id="XMLID_2667_" style="fill:#455A64;" d="M211.196,111.416c-0.067,0.026-0.134,0.052-0.201,0.079
						c-0.138,0.054-0.202,0.246-0.169,0.38c0.339,1.34,1.564,2.153,2.253,3.296c0.353,0.586,1.607,0.413,1.171-0.284
						c-0.454-0.724-1.051-1.302-1.629-1.925c-0.267-0.288-0.543-0.575-0.762-0.903C211.767,111.921,211.46,111.313,211.196,111.416
						L211.196,111.416z"/>
				</g>
			</g>
		</g>
	</g>
</g>
<g id="Emoji">
	<path style="fill:#455A64;" d="M117,185.176c0.237-0.269,0.461-0.566,0.741-0.779c0.305-0.231,0.659-0.398,0.991-0.575
		c0.425-0.226,0.878-0.337,1.352-0.381c0.615-0.057,1.27,0.078,1.882,0.219c0.572,0.131,1.218,0.345,1.725,0.698
		c0.108,0.075,0.083-0.167,0.037-0.221c-0.473-0.551-0.906-1.075-1.485-1.49c-0.607-0.436-1.309-0.572-1.997-0.589
		c-0.741-0.018-1.446,0.201-2.095,0.557c-0.711,0.391-1.315,1.265-1.505,2.149C116.599,184.985,116.777,185.429,117,185.176z
		 M103.408,188.759c0.315-0.531,0.814-0.994,1.28-1.35c0.5-0.382,1.039-0.776,1.622-0.979c0.45-0.157,0.908-0.243,1.388-0.214
		c0.375,0.023,0.766,0.028,1.14,0.113c0.343,0.077,0.671,0.255,0.997,0.402c0.308,0.138,0.286-0.34,0.151-0.521
		c-0.539-0.726-1.452-1.271-2.26-1.333c-0.738-0.056-1.471,0.038-2.138,0.361c-0.619,0.3-1.201,0.715-1.573,1.363
		c-0.354,0.617-0.531,1.274-0.733,1.972C103.264,188.641,103.341,188.873,103.408,188.759z M110.455,172.299
		c-9.537,2.07-15.612,11.512-13.543,21.05c2.07,9.538,11.513,15.613,21.05,13.543c9.537-2.07,15.613-11.512,13.543-21.05
		C129.435,176.305,119.993,170.23,110.455,172.299z M117.7,205.684c-8.871,1.925-17.653-3.726-19.578-12.597
		c-1.925-8.871,3.726-17.654,12.596-19.578c8.871-1.925,17.653,3.726,19.578,12.597C132.221,194.976,126.571,203.758,117.7,205.684z
		 M124.993,188.204c-0.199-0.145-0.429-0.29-0.669-0.354c-0.197-0.052-0.413-0.094-0.617-0.116
		c-0.103-0.011-0.214-0.026-0.317-0.014c-0.109,0.012-0.227,0.051-0.334,0.079c-0.133,0.036-0.064,0.312,0.056,0.324
		c0.207,0.022,0.415,0.077,0.617,0.129c0.088,0.023,0.174,0.049,0.256,0.081c-1.303,3.79-4.492,6.648-8.421,7.501
		c-3.951,0.857-8.063-0.441-10.82-3.386c0.037-0.033,0.071-0.068,0.11-0.1c0.162-0.131,0.328-0.268,0.508-0.373
		c0.104-0.061,0.053-0.341-0.084-0.318c-0.109,0.018-0.232,0.032-0.336,0.066c-0.099,0.033-0.194,0.092-0.283,0.145
		c-0.176,0.104-0.356,0.232-0.514,0.361c-0.192,0.158-0.341,0.385-0.462,0.6c-0.074,0.131-0.141,0.265-0.189,0.408
		c-0.091,0.269-0.188,0.543,0.066,0.788c0.073,0.071,0.219,0.03,0.28-0.036c0.105-0.114,0.186-0.226,0.231-0.374
		c0.014-0.046,0.029-0.091,0.045-0.136c0.034-0.091,0.071-0.182,0.109-0.272c0.007-0.016,0.01-0.025,0.013-0.03
		c0.004-0.008,0.008-0.016,0.013-0.025c0.023-0.045,0.048-0.089,0.073-0.132c0.013-0.022,0.026-0.043,0.039-0.064
		c0.001-0.001,0.008-0.013,0.016-0.024c0.009-0.013,0.022-0.032,0.026-0.037c0.007-0.01,0.017-0.024,0.026-0.037
		c2.879,3.031,7.142,4.363,11.241,3.474c4.067-0.883,7.375-3.822,8.758-7.728c0.021,0.013,0.041,0.027,0.061,0.041
		c0.041,0.029,0.082,0.059,0.121,0.089c0.007,0.006,0.014,0.011,0.021,0.017c0.004,0.004,0.011,0.01,0.024,0.022
		c0.072,0.066,0.143,0.133,0.212,0.202c0.034,0.034,0.066,0.069,0.098,0.105c0.102,0.117,0.222,0.185,0.365,0.245
		c0.082,0.034,0.232,0.012,0.27-0.083c0.13-0.329-0.072-0.538-0.267-0.745C125.231,188.387,125.114,188.293,124.993,188.204z"/>
</g>
<g id="Symbols">
	<g id="XMLID_00000133523238007847094170000016415792817375008922_">
		<path id="XMLID_00000042705238243030829730000003315916348381621411_" style="fill:#455A64;" d="M189.693,240.143
			c-0.538-5.5,6.957-7.12,9.946-3.148c2.122,2.82,0.768,7.488-2.856,8.233c-1.952,0.402-3.722-0.765-4.16-2.707
			c-0.173-0.77-0.157-1.513,0.295-2.208c0.652-0.957,1.641-1.262,2.966-0.915c2.013,2.124,1.452,2.933-1.684,2.426
			c-0.242-0.181-0.268,0.246-0.155,0.379c2.379,2.798,6.208-1.868,2.16-3.562c-4.091-1.712-6.053,3.461-3.48,6.2
			c2.973,3.165,7.922,0.665,8.829-3.089c0.912-3.771-1.8-7.002-5.44-7.622c-4.036-0.686-7.611,1.783-6.607,6.055
			C189.543,240.339,189.707,240.293,189.693,240.143L189.693,240.143z"/>
	</g>
	<g id="XMLID_00000183970623048900846150000017938518188685672119_">
		<path id="XMLID_00000172439692506893083840000013255365477005378736_" style="fill:#455A64;" d="M71.325,341.573
			c2.584,1.132,6.282-1.144,8.101-2.803c2.377-2.166,3.366-5.287,3.161-8.451c-0.174-2.689-1.257-5.812-4.013-6.831
			c-1.989-0.736-4.713-0.324-5.827,1.63c-2.392,4.197,2.343,10.339,6.378,11.279c6.296,1.467,12.051-3.051,13.73-8.89
			c1.17-4.07,0.926-12.811-5.797-10.285c-2.4,0.902-3.305,3.588-2.156,5.813c1.44,2.789,4.971,3.67,7.873,3.223
			c7.365-1.133,12.143-8.755,10.644-15.821c-1.368-6.446-9.528-12.507-15.825-7.947c-2.876,2.082-3.153,6.129-0.354,8.423
			c3.228,2.646,8.407,2.174,11.999,0.644c3.708-1.58,6.475-4.82,7.312-8.786c0.654-3.101-0.368-5.336-3.552-5.921
			c-0.496-0.091-0.456,0.508-0.078,0.66c4.272,1.725,1.481,7.772-0.474,9.945c-2.367,2.63-5.976,3.918-9.476,3.718
			c-2.528-0.145-6.062-1.154-6.003-4.546c0.042-2.424,2.667-3.915,4.756-4.1c3.217-0.285,7.112,2.006,8.733,4.682
			c3.116,5.143,1.615,11.708-2.931,15.38c-3.181,2.569-10.184,4.112-11.538-1.19c0.889-3.17,2.516-3.827,4.88-1.97
			c0.485,0.645,0.77,1.37,0.856,2.175c0.174,0.966,0.079,2.044-0.041,2.996c-0.585,4.64-2.989,8.891-7.817,10.109
			c-4.48,1.13-7.997-1.282-9.351-5.474c-0.314-0.973-0.652-2.198-0.203-3.181c0.978-2.143,3.976-1.295,5.257,0.24
			c1.025,1.228,1.365,3.122,1.434,4.67c0.121,2.745-0.828,5.462-2.941,7.288c-1.505,1.3-4.605,3.346-6.667,2.65
			C70.901,340.735,70.967,341.416,71.325,341.573L71.325,341.573z"/>
	</g>
	<g id="XMLID_504_">
		<path id="XMLID_00000171716292436218589730000014751286524578995086_" style="fill:#455A64;" d="M162.186,184.812h-11.433
			l-3.17-11.881l5.35,4.722l2.413-10.006l3.38,9.435l4.27-6.077L162.186,184.812z M151.521,183.812h9.722l0.548-9.355l-3.355,4.778
			l-2.901-8.101l-2.019,8.365l-4.113-3.63L151.521,183.812z"/>
	</g>
	<polygon style="fill:#BA68C8;" points="65.634,248.077 66.544,241.912 60.378,241.002 59.469,247.168 53.303,246.258 
		52.394,252.424 58.559,253.333 57.65,259.499 63.815,260.408 64.725,254.243 70.89,255.152 71.8,248.987 	"/>
	<path style="fill:#455A64;" d="M176.899,123.913c-1.38,0.036-2.737,0.462-3.831,1.294c-0.451-1.231-0.896-2.464-1.329-3.702
		c0.133-0.39,0.26-0.782,0.377-1.177c0.813-2.75,1.534-6.617-1.296-8.515c-1.065-0.714-2.657-0.547-2.857,0.924
		c-0.091,0.67,0.118,1.338,0.298,1.974c0.264,0.927,0.542,1.851,0.833,2.77c0.421,1.333,0.872,2.656,1.334,3.975
		c-0.038,0.106-0.077,0.215-0.115,0.319c-0.52,1.431-1.209,2.786-1.915,4.132c-0.52,0.99-0.962,2.091-1.179,3.197
		c-0.226,1.154-0.187,2.614,0.13,3.747c0.537,1.918,1.284,3.629,3.6,4.697c1.506,0.695,3.82,0.722,5.41,0.428
		c0.245,0.744,0.183,0.6,0.413,1.349c0.341,1.107,0.542,2.213,0.889,3.325c0.172,0.553,0.374,1.146,0.85,1.475
		c0.355,0.245,0.813,0.301,1.242,0.25c0.595-0.07,1.209-0.379,1.437-0.932c0.236-0.573-0.008-1.25-0.424-1.71
		c-0.415-0.46-0.976-0.756-1.506-1.078c-0.627-0.381-1.111-0.736-1.286-1.443c-0.051-0.206-0.392-1.523-0.436-1.511
		c1.758-0.48,3.766-1.99,4.668-3.597c0.837-1.492,1.25-2.813,1.15-4.383C183.137,126.291,180.32,123.824,176.899,123.913z
		 M173.557,130.028c0.214,0.579,0.423,1.159,0.634,1.738c-0.211-0.02-0.422-0.074-0.626-0.178c-1.396-0.707-1.624-2.498-1.075-3.814
		c0.039-0.093,0.087-0.178,0.131-0.267C172.934,128.348,173.246,129.187,173.557,130.028z M169.604,114.889
		c-0.139-0.483-0.94-3.14,0.419-2.275c0.881,0.561,1.351,1.666,1.508,2.659c0.22,1.393-0.051,2.863-0.465,4.27
		C170.549,118.001,170.055,116.452,169.604,114.889z M168.266,129.452c0.105-0.55,0.232-0.929,0.421-1.456
		c0.342-0.956,0.893-1.936,1.34-2.821c0.352-0.698,0.745-1.179,1.043-1.901c0.343,0.952,0.691,1.903,1.042,2.852
		c-0.973,1.195-1.489,2.841-0.921,4.323c0.537,1.4,1.869,2.357,3.359,2.301c0.4,1.11,1.101,3.11,1.479,4.228
		c-0.964,0.181-1.95,0.249-2.913,0.14c-1.138-0.128-2.475-0.663-3.375-1.752c-0.414-0.501-0.796-1.154-1.085-2.004
		c-0.23-0.678-0.418-1.54-0.468-2.254C168.158,130.659,168.145,130.085,168.266,129.452z M181.899,132.631
		c-0.725,1.537-2.203,3.211-3.754,3.769c-0.307,0.11-0.621,0.208-0.938,0.299c-0.376-1.113-1.071-3.11-1.468-4.216
		c1.247-0.542,2.451-1.825,1.961-3.185c-0.22-0.611-0.799-1.071-1.449-1.1c-0.417-0.018-0.171,0.519,0.119,0.561
		c1.25,0.184,0.216,1.854-0.258,2.275c-0.215,0.191-0.462,0.355-0.725,0.483c-0.288-0.794-0.576-1.589-0.868-2.382
		c-0.345-0.935-0.691-1.869-1.037-2.805c1.557-1.513,4.149-1.842,6.098-0.796C182.021,126.847,183.038,130.219,181.899,132.631z"/>
	<path style="fill:#455A64;" d="M120.664,239.462c0.32-1.85,0.593-3.708,0.821-5.571c0.089-0.731,0.32-1.513-0.244-2.098
		c-0.578-0.599-1.582-0.646-2.351-0.829c-3.869-0.923-7.757-1.978-11.539-3.211c-0.291-0.095-0.812,0.019-0.89,0.378
		c-0.675,3.117-1.49,6.203-2.268,9.296c-0.369,1.468-0.713,2.946-1.126,4.403c-0.052,0.183-0.101,0.367-0.16,0.547
		c-0.633-0.292-1.352-0.397-2.047-0.239c-0.924,0.21-1.546,1.065-1.008,1.963c0.783,1.306,4.196,1.741,4.655-0.084
		c0.157-0.623,0.102-1.299,0.253-1.944c0.137-0.588,0.291-1.172,0.441-1.757c0.315-1.234,0.629-2.468,0.943-3.702
		c0.204-0.802,0.409-1.604,0.614-2.406c0.921,0.504,2.04,0.727,3.038,0.988c1.082,0.283,2.164,0.566,3.246,0.849
		c1.857,0.486,3.734,1.07,5.624,1.464c-0.244,1.567-0.508,3.131-0.818,4.687c-0.246,1.237-0.512,2.471-0.795,3.701
		c-0.085,0.369-0.158,0.766-0.289,1.134c-1.16-0.149-3.044,0.106-2.581,1.706c0.426,1.472,2.393,1.545,3.451,0.8
		c1.388-0.977,1.588-3.02,1.934-4.55C119.983,243.155,120.345,241.311,120.664,239.462z M112.998,234.279
		c-1.08-0.281-2.159-0.562-3.239-0.843c-0.827-0.215-1.757-0.525-2.649-0.591c0.278-1.068,0.56-2.135,0.86-3.197
		c2.154,0.799,4.297,1.571,6.518,2.188c1.283,0.357,2.572,0.692,3.867,1.003c0.288,0.069,0.576,0.136,0.864,0.203
		c-0.082,0.514-0.119,1.498-0.14,1.663c-0.049,0.378-0.114,0.754-0.166,1.132C116.972,235.231,114.96,234.789,112.998,234.279z"/>
</g>
<g id="Rainbow">
	<path style="fill:#BA68C8;" d="M50.066,59.534c-0.941-1.411-1.208-5.09-2.737-4.62c-0.927,0.285-0.15,2.676-1.526,5.146
		c-1.377,2.47-4.059,2.653-3.941,3.593c0.118,0.941,3.881,0,5.056,1.999c1.176,1.999,1.294,4.586,2.117,4.468
		c0.823-0.118,0.353-4.704,2.234-5.88c1.881-1.176,3.651-1.01,3.533-2.129C54.685,60.994,51.007,60.945,50.066,59.534z
		 M33.583,77.301c-0.596-0.894-0.765-3.226-1.734-2.928c-0.587,0.181-0.095,1.696-0.967,3.261c-0.873,1.565-2.572,1.681-2.498,2.277
		c0.075,0.596,2.46,0,3.205,1.267c0.745,1.267,0.82,2.907,1.341,2.832c0.522-0.075,0.224-2.981,1.416-3.727s2.314-0.64,2.239-1.349
		C36.511,78.226,34.179,78.195,33.583,77.301z"/>
	<path style="opacity:0.6;fill:#FFFFFF;" d="M50.066,59.534c-0.941-1.411-1.208-5.09-2.737-4.62
		c-0.927,0.285-0.15,2.676-1.526,5.146c-1.377,2.47-4.059,2.653-3.941,3.593c0.118,0.941,3.881,0,5.056,1.999
		c1.176,1.999,1.294,4.586,2.117,4.468c0.823-0.118,0.353-4.704,2.234-5.88c1.881-1.176,3.651-1.01,3.533-2.129
		C54.685,60.994,51.007,60.945,50.066,59.534z M33.583,77.301c-0.596-0.894-0.765-3.226-1.734-2.928
		c-0.587,0.181-0.095,1.696-0.967,3.261c-0.873,1.565-2.572,1.681-2.498,2.277c0.075,0.596,2.46,0,3.205,1.267
		c0.745,1.267,0.82,2.907,1.341,2.832c0.522-0.075,0.224-2.981,1.416-3.727s2.314-0.64,2.239-1.349
		C36.511,78.226,34.179,78.195,33.583,77.301z"/>
	<g id="XMLID_1432_">
		<g id="XMLID_1792_">
			<path id="XMLID_1646_" style="fill:#BA68C8;" d="M59.83,117.371l6.633-0.285c0,0,1.177-12.68,11.127-15.627
				c12.93-3.829,15,7.108,15,7.108l7.169-3.648c0,0-5.804-13.16-19.198-11.666C67.167,94.747,59.305,108.762,59.83,117.371z"/>
		</g>
		<g id="XMLID_00000153690169165895836200000015633855506345525129_" style="opacity:0.4;">
			<path id="XMLID_00000106114867396076970120000016246293427829869500_" style="fill:#FFFFFF;" d="M59.83,117.371l6.633-0.285
				c0,0,1.177-12.68,11.127-15.627c12.93-3.829,15,7.108,15,7.108l7.169-3.648c0,0-5.804-13.16-19.198-11.666
				C67.167,94.747,59.305,108.762,59.83,117.371z"/>
		</g>
		<g id="XMLID_1782_">
			<path id="XMLID_2344_" style="fill:#BA68C8;" d="M99.759,104.919l6.325-2.869c0,0-4.165-10.881-13.901-15.292
				c-9.736-4.411-20.927-4.229-31.152,6.807s-10.793,23.868-10.793,23.868l9.592-0.062c0,0-0.269-17.475,15.645-22.954
				C91.389,88.938,99.759,104.919,99.759,104.919z"/>
		</g>
		<g id="XMLID_00000054267212439229209150000000620861303824628365_" style="opacity:0.6;">
			<path id="XMLID_00000131361414474769045710000009001853479128054417_" style="fill:#FFFFFF;" d="M99.759,104.919l6.325-2.869
				c0,0-4.165-10.881-13.901-15.292c-9.736-4.411-20.927-4.229-31.152,6.807s-10.793,23.868-10.793,23.868l9.592-0.062
				c0,0-0.269-17.475,15.645-22.954C91.389,88.938,99.759,104.919,99.759,104.919z"/>
		</g>
		<g id="XMLID_1780_">
			<path id="XMLID_2342_" style="fill:#BA68C8;" d="M41.522,114.654l8.717,2.062c0,0,3.701-26.235,24.191-31.722
				c20.49-5.487,31.654,17.055,31.654,17.055l6.733-5.033c0,0-7.855-26.924-32.557-24.731
				C55.559,74.477,41.61,100.042,41.522,114.654z"/>
		</g>
		<g id="XMLID_00000070799490816255514620000015734899351849703808_" style="opacity:0.8;">
			<path id="XMLID_00000043441709981247826100000002312766283687952529_" style="fill:#FFFFFF;" d="M41.522,114.654l8.717,2.062
				c0,0,3.701-26.235,24.191-31.722c20.49-5.487,31.654,17.055,31.654,17.055l6.733-5.033c0,0-7.855-26.924-32.557-24.731
				C55.559,74.477,41.61,100.042,41.522,114.654z"/>
		</g>
		<g id="XMLID_1533_">
			<g id="XMLID_1529_">
				<path id="XMLID_2340_" style="fill:#455A64;" d="M59.925,118.454c0.651-2.38,0.292-4.852,0.97-7.286
					c0.633-2.274,1.583-4.402,2.935-6.342c2.792-4.005,6.453-7.51,11.006-9.393c9.573-3.959,20.587,0.716,24.724,10.194
					c0.131,0.3,0.925,0.384,0.827-0.05C97.838,94.31,84.133,89.94,74.304,94.114c-4.428,1.88-8.025,5.176-10.885,8.995
					c-1.407,1.879-2.579,3.948-3.289,6.194c-0.425,1.344-0.74,2.795-0.886,4.201c-0.167,1.61,0.323,3.132,0.24,4.735
					C59.475,118.413,59.858,118.698,59.925,118.454L59.925,118.454z"/>
			</g>
		</g>
		<g id="XMLID_1539_">
			<g id="XMLID_1564_">
				<path id="XMLID_2337_" style="fill:#455A64;" d="M50.67,118.192c0.972-12.512,9.041-26.588,21.04-31.322
					c6.14-2.422,12.898-2.352,18.968,0.226c3.346,1.421,6.401,3.348,8.713,6.191c2.584,3.178,4.472,6.862,7.002,10.04
					c0.145,0.182,0.708,0.236,0.609-0.123c-1.931-6.999-7.378-13.704-13.825-16.984c-6.437-3.275-13.776-3.936-20.646-1.619
					c-7.258,2.448-12.942,7.791-16.87,14.251c-1.874,3.082-3.246,6.377-4.375,9.795c-0.987,2.985-2.034,6.36-1.383,9.523
					C49.969,118.497,50.64,118.58,50.67,118.192L50.67,118.192z"/>
			</g>
		</g>
		<g id="XMLID_1540_">
			<g id="XMLID_1563_">
				<path id="XMLID_2334_" style="fill:#455A64;" d="M41.853,115.933c0.9-4.384,1.545-8.746,2.907-13.039
					c1.492-4.704,4.394-8.921,7.517-12.688c5.603-6.762,12.429-13.073,20.982-15.72c7.961-2.464,16.341-1.346,23.632,2.577
					c8.08,4.347,12.563,11.545,15.467,19.982c0.139,0.405,1.012,0.469,0.918-0.054c-3.327-18.542-23.214-29.97-40.999-24.044
					C63.44,75.89,56.21,82.572,50.51,89.753c-2.796,3.523-5.413,7.475-6.876,11.763c-1.402,4.107-3.275,9.875-2.552,14.233
					C41.129,116.032,41.771,116.332,41.853,115.933L41.853,115.933z"/>
			</g>
		</g>
	</g>
</g>
<g id="Stars">
	<g id="XMLID_1492_">
		<path id="XMLID_1660_" style="fill:#BA68C8;" d="M24.847,144.754c-1.526,0.095-0.967,9.44-1.45,9.313
			c-0.484-0.127-9.691,2.863-9.922,4.269c-0.231,1.405,9.761,2.818,9.761,2.818s-1.934,8.578-0.161,9.223
			c1.773,0.645,6.446-7.772,6.446-7.772s7.735,4.71,9.185,3.421c1.45-1.289-4.512-7.69-4.512-7.69s7.735-5.363,6.929-6.975
			c-0.806-1.611-9.669,1.255-9.669,1.255S27.425,144.593,24.847,144.754z"/>
	</g>
	<g id="XMLID_00000021824210762644749150000002582590399385802664_" style="opacity:0.3;">
		<path id="XMLID_00000123399844688012941590000011246171802916677298_" style="fill:#FFFFFF;" d="M24.847,144.754
			c-1.526,0.095-0.967,9.44-1.45,9.313c-0.484-0.127-9.691,2.863-9.922,4.269c-0.231,1.405,9.761,2.818,9.761,2.818
			s-1.934,8.578-0.161,9.223c1.773,0.645,6.446-7.772,6.446-7.772s7.735,4.71,9.185,3.421c1.45-1.289-4.512-7.69-4.512-7.69
			s7.735-5.363,6.929-6.975c-0.806-1.611-9.669,1.255-9.669,1.255S27.425,144.593,24.847,144.754z"/>
	</g>
	<g id="XMLID_1609_">
		<path id="XMLID_1628_" style="fill:#BA68C8;" d="M198.17,171.009c-1.591,0.07-3.658,7.971-3.658,7.971s-8.603-0.86-9.55,0
			c-0.947,0.86,7.323,6.426,7.323,6.426s-3.033,7.316-1.596,8.27c1.437,0.954,7.48-5.089,7.48-5.089s7.316,6.407,8.111,5.191
			c0.795-1.215-2.545-9.486-2.545-9.486s6.664-3.946,6.433-5.313c-0.231-1.367-8.165-0.571-8.165-0.571
			S200.079,170.925,198.17,171.009z"/>
	</g>
	<g id="XMLID_411_">
		<path id="XMLID_00000130641554257543011260000003246985902240906913_" style="fill:#455A64;" d="M51.694,176.751
			c-0.762-1.592-3.366-6.655-5.585-5.878c-2.335,0.818-0.325,5.658-1.17,7.132c-0.848,1.478-5.829,2.365-5.179,4.848
			c0.503,1.922,4.126,1.267,5.42,1.627c0.583,0.162,0.088-0.675,0.344,0.598c0.2,0.994,0.314,2.026,0.559,3.009
			c0.178,0.712,0.221,1.526,0.894,1.957c2.86,1.836,3.231-4.078,4.567-4.755c1.271-0.644,6.141,3.585,7.208,0.658
			c0.251-0.688-0.957-2.263-1.253-2.688c-1.106-1.587-1.664-1.148-1.052-2.609c0.5-1.194,4.391-5.034,2.254-6.31
			c-1.572-0.939-6.036,1.293-7.546,2.026c-0.557,0.27,0.071,1.122,0.571,0.956c1.137-0.377,5.554-2.499,6.27-1.766
			c0.354,0.362-2.864,4.963-3.232,5.6c-0.112,0.194,0.043,0.521,0.2,0.645c0.541,0.429,3.105,2.863,2.187,3.888
			c-0.784,0.874-4.848-1.15-5.818-1.469c-0.21-0.069-0.426-0.045-0.543,0.16c-0.545,0.961-1.766,5.456-3.678,3.849
			c-0.588-0.494-0.592-3.269-0.766-4.169c-0.044-0.229-0.232-0.486-0.468-0.551c-1.198-0.331-2.973,0.256-4.046-0.421
			c-1.424-0.898,0.332-1.769,1.372-2.511c0.876-0.625,1.777-1.206,2.7-1.758c0.099-0.059,0.2-0.181,0.195-0.305
			c-0.048-1.299-0.359-3.191,0.037-4.464c1.127-3.624,4.019,1.396,5.1,2.98C51.47,177.377,51.87,177.12,51.694,176.751
			L51.694,176.751z"/>
	</g>
</g>
<g id="Flowers">
	<g id="XMLID_1500_">
		<path id="XMLID_00000016778651352339309770000016251250937973073036_" style="fill:#BA68C8;" d="M133.763,271.24
			c-1.152-0.572-2.627-0.802-3.67-0.048c-0.879,0.636-1.212,1.815-1.156,2.899c0.119,2.301,1.869,4.422,4.104,4.978
			c-2.33,0.075-4.531,0.525-6.314,2.028c-0.362,0.305-0.897,1.003-1.005,1.505c-0.222,1.03,0.003,2.154,0.82,2.82
			c0.816,0.667,1.913,0.889,2.967,0.911c0.98,0.021,1.964-0.116,2.903-0.397c0.905-0.271,1.681-0.861,2.544-1.148
			c-0.428,1.135-0.774,2.2-0.814,3.42c-0.034,1.04,0.308,2.138,1.101,2.846c0.938,0.838,2.322,1.058,3.5,0.671
			c0.395-0.13,0.774-0.316,1.102-0.571c0.781-0.605,1.234-1.57,1.349-2.551c0.096-0.819-0.027-1.649-0.265-2.434
			c-0.219-0.723-0.418-1.395-0.799-2.065c1.521,0.979,2.622,2.275,4.535,2.418c1.53,0.115,3.048-0.526,3.659-2.006
			c0.655-1.585-0.128-3.616-1.677-4.351c-0.541-0.257-1.138-0.365-1.727-0.471c-0.655-0.118-1.31-0.235-1.965-0.353
			c1.789-1.026,3.027-2.957,3.21-5.011c0.069-0.767-0.008-1.569-0.378-2.244c-1.192-2.177-3.551-1.484-5.159-0.324
			c-1.817,1.31-2.481,3.673-2.805,5.834c0.146-0.731-1.255-3.276-1.609-3.989C135.675,272.52,134.894,271.801,133.763,271.24z"/>
	</g>
	<g id="XMLID_1508_">
		<path id="XMLID_2370_" style="fill:#BA68C8;" d="M33.675,219.867c-0.857-0.426-1.954-0.597-2.73-0.036
			c-0.654,0.473-0.902,1.351-0.86,2.157c0.089,1.711,1.39,3.29,3.053,3.703c-1.734,0.055-3.371,0.391-4.697,1.509
			c-0.269,0.227-0.667,0.746-0.748,1.119c-0.166,0.766,0.002,1.602,0.61,2.098s1.423,0.661,2.207,0.678
			c0.729,0.016,1.461-0.086,2.16-0.295c0.674-0.202,1.251-0.64,1.893-0.854c-0.318,0.844-0.576,1.636-0.605,2.544
			c-0.025,0.774,0.229,1.591,0.819,2.117c0.698,0.623,1.727,0.787,2.604,0.499c0.294-0.097,0.576-0.235,0.82-0.425
			c0.581-0.45,0.918-1.168,1.004-1.897c0.071-0.609-0.02-1.227-0.197-1.811c-0.163-0.538-0.311-1.038-0.595-1.536
			c1.132,0.728,1.95,1.693,3.373,1.799c1.138,0.085,2.267-0.392,2.722-1.492c0.487-1.179-0.095-2.69-1.248-3.237
			c-0.402-0.191-0.846-0.271-1.284-0.35c-0.487-0.088-0.974-0.175-1.462-0.263c1.331-0.763,2.251-2.2,2.388-3.728
			c0.051-0.57-0.006-1.167-0.281-1.669c-0.887-1.619-2.642-1.104-3.838-0.241c-1.352,0.975-1.846,2.732-2.086,4.34
			c0.109-0.544-0.934-2.437-1.197-2.967C35.098,220.819,34.517,220.284,33.675,219.867z"/>
	</g>
	<g id="XMLID_00000098910813765048216760000014102229081489885834_" style="opacity:0.65;">
		<path id="XMLID_00000103264729039874404500000009507606127958086827_" style="fill:#FFFFFF;" d="M33.675,219.867
			c-0.857-0.426-1.954-0.597-2.73-0.036c-0.654,0.473-0.902,1.351-0.86,2.157c0.089,1.711,1.39,3.29,3.053,3.703
			c-1.734,0.055-3.371,0.391-4.697,1.509c-0.269,0.227-0.667,0.746-0.748,1.119c-0.166,0.766,0.002,1.602,0.61,2.098
			s1.423,0.661,2.207,0.678c0.729,0.016,1.461-0.086,2.16-0.295c0.674-0.202,1.251-0.64,1.893-0.854
			c-0.318,0.844-0.576,1.636-0.605,2.544c-0.025,0.774,0.229,1.591,0.819,2.117c0.698,0.623,1.727,0.787,2.604,0.499
			c0.294-0.097,0.576-0.235,0.82-0.425c0.581-0.45,0.918-1.168,1.004-1.897c0.071-0.609-0.02-1.227-0.197-1.811
			c-0.163-0.538-0.311-1.038-0.595-1.536c1.132,0.728,1.95,1.693,3.373,1.799c1.138,0.085,2.267-0.392,2.722-1.492
			c0.487-1.179-0.095-2.69-1.248-3.237c-0.402-0.191-0.846-0.271-1.284-0.35c-0.487-0.088-0.974-0.175-1.462-0.263
			c1.331-0.763,2.251-2.2,2.388-3.728c0.051-0.57-0.006-1.167-0.281-1.669c-0.887-1.619-2.642-1.104-3.838-0.241
			c-1.352,0.975-1.846,2.732-2.086,4.34c0.109-0.544-0.934-2.437-1.197-2.967C35.098,220.819,34.517,220.284,33.675,219.867z"/>
	</g>
	<path style="fill:#BA68C8;" d="M166.574,208.231c-0.834-1.042-2.009-1.696-3.28-1.984c1.893-1.897,0.941-5.409-1.438-6.74
		c-1.361-0.761-3.082-0.921-4.47-0.135c-0.639,0.362-1.159,0.899-1.504,1.548c-0.072,0.135-0.125,0.264-0.171,0.39
		c-0.617-0.772-1.43-1.362-2.409-1.699c-1.463-0.504-3.215-0.451-4.441,0.583c-1.117,0.942-1.637,2.546-1.33,3.967
		c0.215,0.996,0.736,1.816,1.433,2.478c-2.503,0.208-4.885,2.102-4.391,4.9c0.248,1.405,1.335,2.503,2.615,3.05
		c1.403,0.6,2.93,0.517,4.366,0.111c0.035,1.294,0.317,2.547,1.305,3.497c0.959,0.923,2.307,1.436,3.637,1.383
		c2.493-0.099,4.182-2.232,4.272-4.547c0.798,0.633,1.787,0.994,2.851,0.954c1.678-0.063,3.151-1.241,3.774-2.767
		C168.071,211.561,167.68,209.614,166.574,208.231z M166.953,212.534c-0.746,2.651-4.617,3.985-6.184,1.262
		c-0.184-0.319-1.054-0.489-0.96,0.081c0.354,2.138-0.946,4.739-3.276,5.013c-1.033,0.122-2.119-0.246-2.869-0.966
		c-1.037-0.995-1.071-2.453-0.966-3.795c0.038-0.482-0.624-0.712-0.992-0.578c-2.094,0.758-5.685,0.947-6.215-1.96
		c-0.204-1.117,0.29-2.3,1.138-3.031c1.053-0.907,2.445-1.059,3.773-0.861c0.675,0.101,0.886-0.699,0.252-0.964
		c-2.228-0.931-3.18-3.851-1.554-5.757c1.765-2.069,4.876-1.018,6.454,0.817c0.008,0.328,0.088,0.662,0.231,1.041
		c0.061,0.162,0.421,0.469,0.511,0.158c0.013-0.044,0.028-0.088,0.041-0.132c0.167,0.066,0.333-0.099,0.228-0.361
		c-0.019-0.048-0.044-0.091-0.064-0.138c0.301-0.847,0.732-1.678,1.456-2.212c1.04-0.767,2.384-0.747,3.503-0.158
		c2.348,1.237,2.781,4.836,0.171,6.032c-0.609,0.279,0.088,0.983,0.507,0.977C165.039,206.955,167.814,209.472,166.953,212.534z
		 M157.484,206.228c-0.056,0.029-0.094,0.078-0.106,0.153c-0.016,0.1,0.074,0.183,0.158,0.239c0.332,0.223,0.717,0.362,1.027,0.614
		c0.527,0.429,0.766,1.182,0.581,1.836c-0.131,0.465-0.453,0.86-0.841,1.148c-0.388,0.287-0.841,0.475-1.301,0.624
		c-0.295,0.096-0.598,0.177-0.907,0.204c-0.328,0.029-0.661-0.004-0.976-0.097c-0.325-0.095-0.635-0.257-0.874-0.497
		c-0.41-0.412-0.573-1.024-0.534-1.604c0.04-0.615,0.332-1.255,0.884-1.528c0.236-0.117,0.5-0.159,0.76-0.2
		c0.323-0.051,0.646-0.102,0.969-0.153c0.049-0.008,0.101-0.017,0.137-0.05c0.247-0.223-0.803-0.472-0.927-0.477
		c-0.394-0.018-0.798,0.073-1.155,0.238c-0.531,0.246-0.948,0.669-1.224,1.181c-0.579,1.077-0.336,2.587,0.777,3.211
		c1.096,0.615,2.46,0.625,3.63,0.22c1.046-0.362,2.253-1.097,2.551-2.243c0.175-0.672-0.029-1.354-0.497-1.863
		c-0.316-0.343-0.716-0.596-1.147-0.77C158.312,206.352,157.729,206.099,157.484,206.228z"/>
</g>
<g id="Hearts">
	<g id="XMLID_00000012434732139572339060000004798138195753460360_">
		<g id="XMLID_00000167382045647275304700000003976802149263642779_">
			<g id="XMLID_00000039100428689849663390000015664050022880867728_">
				<path id="XMLID_2713_" style="fill:#455A64;" d="M181.527,93.489c-0.082-3.576-6.673-6.952-8.578-2.97
					c-1.887,3.945,4.201,8.645,6.758,10.571c0.611,0.46,1.336,0.138,0.635-0.39c-2.245-1.691-4.762-4.409-6.019-7.002
					c-0.704-1.453-0.431-3.5,1.423-3.868c2.317-0.46,4.399,1.915,5.369,3.775C181.259,93.879,181.534,93.78,181.527,93.489
					L181.527,93.489z"/>
			</g>
		</g>
		<g id="XMLID_00000143587605983807086830000001533397895553645486_">
			<g id="XMLID_1176_">
				<path id="XMLID_2710_" style="fill:#455A64;" d="M181.411,93.73c1.206-0.927,2.378-2.184,3.914-2.804
					c1.805-0.729,3.867-0.425,3.676,2.405c-0.134,1.986-2.603,4.171-4.197,5.183c-1.589,1.009-2.987,1.714-4.951,2.48
					c-0.362,0.141-0.043,0.593,0.277,0.54c3.845-0.636,11.734-5.557,9.811-10.342c-1.512-3.763-8.009-0.685-8.825,2.1
					C181.07,93.449,181.163,93.874,181.411,93.73L181.411,93.73z"/>
			</g>
		</g>
	</g>
	<g id="XMLID_00000179619365299959339050000009525473831642470589_">
		<g id="XMLID_1677_">
			<g id="XMLID_00000081606012294698319800000003606859514791240623_">
				<path id="XMLID_2706_" style="fill:#455A64;" d="M187.285,267.323c-1.522-2.656-7.833-3.211-8.099,0.665
					c-0.287,4.178,6.591,5.341,9.504,5.938c0.766,0.157,0.88-0.817,0.181-0.96c-2.516-0.516-6.197-1.025-7.941-3.106
					c-1.146-1.368-0.483-3.201,1.238-3.582c1.737-0.384,3.528,0.347,4.871,1.409C187.277,267.874,187.383,267.494,187.285,267.323
					L187.285,267.323z"/>
			</g>
		</g>
		<g id="XMLID_1663_">
			<g id="XMLID_00000101072153574513589280000013196684738459061635_">
				<path id="XMLID_2703_" style="fill:#455A64;" d="M187.258,267.654c0.794-1.077,1.206-2.356,2.092-3.394
					c0.384-0.45,0.96-1.148,1.53-1.341c1.343-0.455,2.078,0.521,2.206,1.746c0.171,1.636-0.708,3.37-1.561,4.695
					c-0.868,1.349-2.334,2.382-3.039,3.794c-0.118,0.237,0.112,0.822,0.454,0.672c3.28-1.436,7.249-7.698,4.692-11.125
					c-2.631-3.526-6.993,1.895-6.698,4.716C186.947,267.546,187.111,267.853,187.258,267.654L187.258,267.654z"/>
			</g>
		</g>
	</g>
	<g id="XMLID_1106_">
		<path id="XMLID_1668_" style="fill:#BA68C8;" d="M144.205,107.464c0,0-1.366-9.328-7.585-7.117
			c-6.219,2.211-3.366,9.252-0.964,12.773c2.402,3.521,5.042,5.975,5.042,5.975s5.96-1.288,10.937-4.45
			c3.83-2.433,5.286-6.436,1.899-9.433C150.63,102.643,146.198,104.482,144.205,107.464z"/>
	</g>
	<g>
		<g id="XMLID_1493_">
			<path id="XMLID_00000154414822645589536760000009575958815742649526_" style="fill:#BA68C8;" d="M168.415,250.256
				c0,0-2.806-7.539-8.76-4.328c-3.659,1.973-2.778,6.256-0.129,9.391c2.165,2.562,5.474,5.047,7.688,5.872
				c0,0,4.579-1.667,8.267-4.535c4.95-3.849,4.731-8.768,2.223-10.503C175.196,244.418,169.693,246.543,168.415,250.256z"/>
		</g>
		<g id="XMLID_00000172432511604629142130000006149081732763043202_" style="opacity:0.2;">
			<path id="XMLID_00000026881827007367530280000002336281367551733891_" style="fill:#FFFFFF;" d="M168.415,250.256
				c0,0-2.806-7.539-8.76-4.328c-3.659,1.973-2.778,6.256-0.129,9.391c2.165,2.562,5.474,5.047,7.688,5.872
				c0,0,4.579-1.667,8.267-4.535c4.95-3.849,4.731-8.768,2.223-10.503C175.196,244.418,169.693,246.543,168.415,250.256z"/>
		</g>
	</g>
	<path id="XMLID_00000079452922647235971690000001063631495389412799_" style="opacity:0.5;fill:#FFFFFF;" d="M36.093,324.145
		c0,0-6.414-4.725-8.962-0.769c-1.638,2.543,0.776,6.532,5.005,7.638c4.229,1.106,9.102,1.313,9.102,1.313s3.206-7.448,2.706-11.572
		c-0.5-4.124-3.893-4.208-6.029-2.207C35.925,320.413,36.093,324.145,36.093,324.145z"/>
	<path id="XMLID_00000091698149362977202870000017180742027348389555_" style="fill:#BA68C8;" d="M96.59,129.184
		c0,0-6.057-5.175-8.883-1.413c-1.817,2.419,0.303,6.571,4.441,7.979c4.139,1.408,8.984,1.966,8.984,1.966s3.735-7.197,3.533-11.347
		c-0.202-4.15-3.579-4.478-5.854-2.636C96.691,125.449,96.59,129.184,96.59,129.184z"/>
	<path id="XMLID_00000013185203279419677890000006316718836928789893_" style="fill:#BA68C8;" d="M36.796,301.89
		c0,0-1.718-2.282-4.013-1.93c-2.295,0.352-2.725,2.174-0.821,4.111c1.719,1.749,6.725,2.202,6.725,2.202s2.837-3.328,2.864-5.785
		c0.027-2.389-1.759-3.943-3.488-2.597C36.078,299.434,36.796,301.89,36.796,301.89z"/>
	<g>
		<path id="XMLID_00000041986051652495225450000007352581518792980612_" style="fill:#BA68C8;" d="M119.13,135.62
			c0,0-1.312-2.537-3.634-2.574c-2.322-0.037-3.236,2.282-1.217,4.099c2.019,1.817,5.704,3.017,5.704,3.017s3.031-3.234,3.782-4.702
			c1.179-2.308-0.799-5.197-2.717-3.571C119.13,133.514,119.13,135.62,119.13,135.62z"/>
		<path id="XMLID_00000037662981391669234530000006606485128415942812_" style="opacity:0.6;fill:#FFFFFF;" d="M119.13,135.62
			c0,0-1.312-2.537-3.634-2.574c-2.322-0.037-3.236,2.282-1.217,4.099c2.019,1.817,5.704,3.017,5.704,3.017s3.031-3.234,3.782-4.702
			c1.179-2.308-0.799-5.197-2.717-3.571C119.13,133.514,119.13,135.62,119.13,135.62z"/>
	</g>
	<g id="XMLID_00000003102605289175384400000003696834417469579929_">
		<g id="XMLID_00000177486190141775735890000016516090914659847084_">
			<path id="XMLID_00000130633332793919722070000015017603985232878516_" style="fill:#455A64;" d="M58.766,305.493
				c-0.608-3.401-6.212-6.002-7.821-1.852c-1.671,4.309,5.022,8.467,7.965,9.905c0.416,0.203,0.854-0.242,0.383-0.516
				c-2.625-1.524-5.559-3.206-7.027-5.998c-0.91-1.73-1.01-4.258,1.478-4.804c2.171-0.477,3.863,1.617,4.719,3.291
				C58.543,305.676,58.81,305.741,58.766,305.493L58.766,305.493z"/>
		</g>
		<g id="XMLID_00000114053299822967260920000008109828950203739787_">
			<path id="XMLID_00000050646414461105082960000014158209145612987528_" style="fill:#455A64;" d="M58.761,305.816
				c0.369-1.383,1.659-2.579,2.903-3.2c2.677-1.338,5.397,0.851,4.292,3.69c-1.246,3.203-4.639,4.759-7.131,6.777
				c-0.408,0.33,0.337,0.723,0.669,0.49c2.669-1.866,9.859-6.105,7.092-10.431c-1.105-1.727-3.128-2.069-4.947-1.32
				c-1.397,0.575-3.426,2.164-3.252,3.845C58.403,305.822,58.696,306.059,58.761,305.816L58.761,305.816z"/>
		</g>
	</g>
	<path style="fill:#BA68C8;" d="M87.006,209.091c-1.921-1.288-4.256-1.138-6.082,0.073c-0.969,0.643-1.751,1.574-2.315,2.639
		c-0.447,0.845-0.613,1.714-0.709,2.642c-0.476-0.797-0.992-1.512-1.751-2.089c-0.962-0.732-2.064-1.25-3.214-1.428
		c-2.167-0.336-4.351,0.504-5.55,2.476c-1.142,1.877-1.137,4.15-0.209,6.215c0.998,2.22,2.865,3.786,4.839,4.902
		c2.7,1.526,5.671,2.654,8.525,3.747c0.219,0.084,0.4,0.068,0.537-0.007c0.004-0.001,0.007-0.003,0.011-0.005
		c0.002-0.001,0.003-0.002,0.005-0.003c0.082-0.036,0.164-0.091,0.245-0.174c2.129-2.185,4.35-4.45,6.156-6.964
		c1.321-1.838,2.355-4.039,2.324-6.471C89.789,212.383,88.834,210.317,87.006,209.091z M88.816,213.729
		c0.41,2.746-0.923,5.254-2.471,7.213c-1.766,2.234-3.795,4.206-5.602,6.399c-2.559-1.23-5.224-2.171-7.762-3.457
		c-2.231-1.131-4.499-2.849-5.285-5.513c-0.699-2.369,0.242-5.015,2.311-6.031c2.719-1.336,5.938,0.769,7.812,3.007
		c0.127,0.151,0.249,0.156,0.341,0.089c0.081-0.015,0.154-0.077,0.193-0.221c0.757-2.814,2.791-6.069,5.822-5.993
		C86.48,209.278,88.451,211.287,88.816,213.729z"/>
	<path id="XMLID_00000154422903388821862310000001912509494417099137_" style="fill:#BA68C8;" d="M36.093,324.145
		c0,0-6.414-4.725-8.962-0.769c-1.638,2.543,0.776,6.532,5.005,7.638c4.229,1.106,9.102,1.313,9.102,1.313s3.206-7.448,2.706-11.572
		c-0.5-4.124-3.893-4.208-6.029-2.207C35.925,320.413,36.093,324.145,36.093,324.145z"/>
</g>
<g id="Character">
	<g id="Character_2_">
		<g id="Bottom_00000081645743144373231610000006077390401306728884_">
			<g>
				<path style="fill:#FFA8A7;" d="M252.042,413.397c0.723-3.87-3.07-6.162-4.9-8.306c-2.831-3.316-3.782-8.564-3.913-12.624
					c-0.163-5.064-0.896-8.655,1.976-13.345c3.4-5.551,8.179-12.081,24.401-28.229l-22.293-10.551
					c-4.063,7.183-13.328,22.001-13.328,22.001l-0.854,1.301c-1.958,2.622-3.029,4.65-6.092,6.947
					c-0.015,0.011-1.112,0.639-1.127,0.651c-1.921,1.465-6.891,3.128-6.613,7.977c0.278,4.849,2.16,5.981,4.441,9.876
					c1.454,2.483,2.495,3.731,2.785,8.574c0.234,3.902,0.048,5.591,0.146,9.087c0.083,2.942,2.885,7.118,8.443,8.83
					C243.213,418.08,251.33,417.205,252.042,413.397z"/>
				<g>
					<g id="XMLID_00000060738831245524184610000018172881596945716659_">
						<path style="fill:#263238;" d="M216.463,379.461c-1.314,1.824-4.717,7.963-5.571,10.863l5.823,7.761l4.305-8.205
							C221.02,389.881,217.477,384.982,216.463,379.461z"/>
						<path d="M216.715,398.086l7.54-0.813c0,0,0.548-2.676-0.936-4.79c-1.484-2.113-2.299-2.602-2.299-2.602L216.715,398.086z"/>
						<path style="fill:#263238;" d="M217.909,377.608c0,0-1.073,0.878-1.396,1.677c-0.325,0.805,0.281,5.783,1.949,8.144
							c1.667,2.361,4.33,4.832,5.098,8.253c0.768,3.421-0.443,8.745,1.078,13.507c1.521,4.762,6.236,10.1,16.095,11.037
							c7.047,0.669,9.637-0.797,11.922-2.393c0.724-3.153,0.61-3.965-3.325-6.461C245.394,408.878,217.909,377.608,217.909,377.608z
							"/>
						<path id="XMLID_00000095304836876346612940000007132971311491047310_" style="fill:#37474F;" d="M230.464,364.418
							c-2.991,3.976-4.06,5.501-6.884,7.339c-3.417,2.224-4.11,3.094-5.671,5.852c-0.542,4.197,0.341,5.893,4.265,11.09
							c2.684,3.556,3.614,5.924,3.74,10.945c0.154,6.074-1.829,9.016,5.583,14.965c5.773,4.634,17.993,4.507,21.174,1.022
							c2.507-8.389-4.735-7.526-6.793-16.242c-1.14-4.829-2.185-10.165-0.901-15.077c0.443-1.696,1.182-3.216,2.09-4.698
							c0.817-1.335,3.293-4.345,1.806-5.935l-1.01,1.428c-1.759,0.468-5.687-0.183-8.61-2.428c-7.055-5.421-6.122-9.033-6.122-9.033
							l0.854-1.301C233.258,361.513,232.162,362.163,230.464,364.418z"/>
					</g>
				</g>
			</g>
			<g>
				<path style="fill:#37474F;" d="M273.473,268.741l16.543-22.574l35.82-19.048c0.39,10.979,2.22,19.411-2.692,44.979
					c-5.121,26.655-17.52,45.534-24.556,53.781c-7.037,8.247-43.518,40.682-43.518,40.682c-3.657-0.527-13.864-8.547-15.151-13.819
					c0,0,7.986-14.308,12.706-21.658c6.164-9.598,7.975-14.187,19.539-22.247C271.241,298.974,273.473,268.741,273.473,268.741z"/>
				<g>
					<path style="fill:#263238;" d="M244.637,351.803l-0.749-0.478l0.45-0.704c11.091-17.352,21.635-33.472,46.208-38.742
						l0.186,0.869c-24.21,5.193-34.644,21.139-45.645,38.352L244.637,351.803z"/>
					<path style="fill:#263238;" d="M272.395,336.166l-8.314-20.842c0.082-0.079,0.17-0.16,0.254-0.239
						c0.38-0.36,0.775-0.723,1.189-1.09c0.164-0.146,0.335-0.293,0.505-0.44c0.394-0.34,0.807-0.685,1.234-1.035
						c0.202-0.165,0.403-0.329,0.613-0.496c0.447-0.356,0.922-0.72,1.408-1.088c0.211-0.16,0.411-0.316,0.63-0.478
						c0.176-0.131,0.362-0.265,0.543-0.397c0.549-0.401,1.108-0.804,1.708-1.223c-0.022-0.237-0.041-0.496-0.06-0.756
						c-0.012-0.182-0.025-0.367-0.036-0.557c-0.008-0.129-0.015-0.261-0.022-0.395c-0.022-0.441-0.042-0.9-0.057-1.388
						c-0.001-0.043-0.003-0.081-0.005-0.124c-0.016-0.544-0.026-1.12-0.033-1.714c-0.001-0.061-0.001-0.124-0.002-0.186
						c-0.001-0.086-0.002-0.172-0.003-0.259c-0.004-0.527-0.006-1.068-0.005-1.627c0-0.05,0-0.097,0-0.147c0-0.023,0-0.045,0-0.069
						c0.003-0.657,0.009-1.336,0.019-2.028c0.002-0.134,0.004-0.271,0.006-0.406c0.01-0.647,0.023-1.305,0.038-1.975
						c0-0.016,0.001-0.033,0.001-0.049c0.001-0.034,0.001-0.067,0.002-0.101c0.018-0.763,0.04-1.539,0.064-2.323
						c0-0.008,0.001-0.017,0.001-0.026c0.001-0.037,0.002-0.074,0.004-0.111c0.024-0.766,0.05-1.539,0.079-2.315
						c0-0.001,0-0.003,0-0.004c0-0.01,0.001-0.02,0.001-0.03l32.189-26.906c0.146-0.703,15.342-10.571,15.342-10.571
						c-1.104,9.657-11.022,14.109-11.022,14.109l3.293,36.259c-4.685,9.367-9.66,16.365-13.266,20.614
						c-0.035,0.041-0.072,0.086-0.106,0.126c-0.23,0.27-0.495,0.568-0.787,0.889c-0.078,0.085-0.171,0.183-0.252,0.272
						c-0.223,0.242-0.451,0.487-0.703,0.753c-0.124,0.13-0.263,0.273-0.393,0.409c-0.233,0.243-0.467,0.486-0.721,0.746
						c-0.155,0.159-0.323,0.328-0.487,0.493c-0.254,0.257-0.508,0.514-0.778,0.784c-0.18,0.179-0.368,0.366-0.555,0.551
						c-0.273,0.271-0.55,0.545-0.838,0.828c-0.202,0.199-0.41,0.402-0.619,0.606c-0.293,0.287-0.591,0.577-0.897,0.873
						c-0.22,0.214-0.444,0.43-0.671,0.649c-0.313,0.302-0.631,0.608-0.955,0.918c-0.23,0.221-0.462,0.443-0.698,0.668
						c-0.339,0.324-0.684,0.652-1.033,0.983c-0.234,0.222-0.468,0.444-0.706,0.67c-0.37,0.35-0.747,0.706-1.126,1.063
						c-0.224,0.211-0.446,0.42-0.672,0.633c-0.42,0.395-0.846,0.794-1.275,1.195c-0.195,0.182-0.388,0.363-0.584,0.547
						c-0.504,0.471-1.014,0.946-1.527,1.422c-0.123,0.114-0.244,0.228-0.367,0.342c-3.312,3.076-6.763,6.24-10.044,9.229
						C271.667,346.721,271.935,341.687,272.395,336.166z"/>
				</g>
				<path style="fill:#455A64;" d="M236.998,357.495c0,0-0.345,4.579,5.683,9.274c4.766,3.712,9.563,3.247,9.563,3.247l7.123-6.974
					c0,0-3.794,1.027-9.753-4.113c-6.248-5.389-6.529-12.104-6.529-12.104L236.998,357.495z"/>
			</g>
			<g>
				<path style="fill:#FFA8A7;" d="M302.601,436.122c1.911,5.6,8.507,6.837,13.68,5.124c2.919-0.967,4.324-4.275,6.169-6.473
					c2.728-3.248,6.757-5.076,10.718-6.594c3.961-1.518,8.082-2.878,11.413-5.503c2.819-2.221,4.95-5.301,6.035-8.721
					c0.346-1.09,0.589-2.248,0.386-3.374c-0.488-2.718-3.478-4.382-6.239-4.386c-2.761-0.004-5.353,1.22-7.887,2.318
					c-3.42,1.482-6.921,2.777-10.482,3.878c-1.119,0.346-2.263,0.676-3.435,0.677c-1.844,0.001-4.652-1.444-5.357-3.022
					c-1.124-2.519-2.405-30.47-2.386-31.767l-26.654,6.75c0,0,9.994,30.203,11.586,35.297c0.155,0.496,0.252,1.007,0.339,1.518
					C301.301,426.584,301.029,431.516,302.601,436.122z"/>
				<path style="fill:#37474F;" d="M259.736,227.119c-5.434,20.24-7.033,26.341-3.252,45.394
					c2.576,12.976,10.826,34.556,20.745,63.652c-0.697,16.687,1.811,21.732,5.346,33.339c5.407,17.755,11.948,33.583,11.948,33.583
					s4.682-7.423,21.899-6.42c-1.063-16.783-2.048-49.714-3.449-61.877c-2.081-18.061-7.974-69.626-7.974-69.626
					s22.581-0.562,17.977-38.046H259.736z"/>
				<path style="fill:#263238;" d="M300.401,398.806c-3.882-10.167-8.041-21.927-10.364-30.903
					c-2.747-10.616-3.607-17.973-3.886-22.388c-0.283-4.485-0.342-10.008-0.443-11.959c-0.335-6.441-3.117-20.082-8.138-35.028
					c-4.437-13.209-6.972-26.7-8.295-34.683c0.15,0.008,0.302,0.029,0.45,0.029c1.777,0,3.431-0.593,4.928-1.769
					c4.449-3.494,7.48-12.015,9.012-25.327l-0.884-0.102c-1.482,12.884-4.483,21.435-8.677,24.73
					c-1.497,1.176-3.167,1.692-4.968,1.546c-1.847-12.703,1.421-21.81,4.316-29.85c0.742-2.062,1.436-4.017,2.043-5.983h-0.934
					c-0.583,1.86-1.24,3.721-1.946,5.682c-2.956,8.213-6.307,17.521-4.313,30.632c1.213,7.976,3.876,21.837,8.425,35.377
					c4.781,14.233,7.765,28.472,8.093,34.792c0.098,1.895,0.161,7.428,0.443,11.848c0.285,4.462,0.996,11.242,3.961,22.453
					c2.232,8.44,6.566,21.533,10.374,31.29C299.849,399.062,300.131,398.935,300.401,398.806z"/>
				<g>
					<g>
						<path style="fill:#37474F;" d="M349.032,405.067c-2.366-2.481-7.139-0.847-10.211,0.4c-6.491,2.634-8.453,4.43-13.26,5.35
							c-6.972,1.334-6.755-2.662-6.755-2.662s-5.077-3.688-14.083,1.23c-6.397,3.494-6.341,8.036-6.341,8.036
							s1.878,4.12,2.129,10.645c0.25,6.525,0.832,8.598,1.66,10.437l29.058-19.006l2.073-0.488
							C339.583,415.592,349.032,405.067,349.032,405.067z"/>
						<path style="fill:#263238;" d="M352.593,409.811c-0.31-1.856-0.949-3.02-1.827-3.65c-0.336-0.241-1.509-0.931-1.735-1.094
							c-2.985-2.152-8.725,1.883-13.593,5.883c-5.669,4.659-15.496,5.34-20.214,11.819c-4.718,6.479-10.297,8.786-12.241,11.649
							c-1.38,2.031-1.15,4.353,0.229,6.016c0.265,0.32,1.251,1.332,1.447,1.539c1.373,1.452,3.898,2.136,6.943,1.704
							c6.143-0.873,10.612-2.593,15.994-9.515c5.382-6.921,11.594-3.337,17.692-7.652
							C351.386,422.196,353.566,415.644,352.593,409.811z"/>
						<path d="M352.593,409.811c-1.364-8.174-9.124-2.93-15.419,2.242c-5.669,4.659-15.495,5.34-20.214,11.819
							c-4.719,6.479-10.426,8.703-12.242,11.649c-3.301,5.357,0.74,9.029,6.883,8.156c6.143-0.873,10.612-2.593,15.994-9.515
							c5.382-6.921,11.594-3.337,17.692-7.652C351.386,422.196,353.566,415.644,352.593,409.811z"/>
					</g>
					<path style="fill:#263238;" d="M330.655,430.268l-13.695-6.395c-4.719,6.479-10.426,8.703-12.242,11.649
						c-1.665,2.703-2.03,4.151-2.03,4.151l2.127,4.631c0.035,0.039,0.682,0.736,0.719,0.774l0.019,0.021l0.003-0.001
						c1.382,1.424,3.885,2.095,6.901,1.666c6.143-0.873,10.612-2.593,15.994-9.515c1.113-1.431,2.113-2.713,3.06-3.894
						L330.655,430.268z"/>
					<path d="M305.574,438.608c-3.301,5.357,0.74,9.029,6.883,8.156c6.143-0.873,10.612-2.593,15.994-9.515
						c1.112-1.431,2.113-2.713,3.06-3.894l-13.695-6.395C313.097,433.438,307.389,435.662,305.574,438.608z"/>
				</g>
				<path style="fill:#455A64;" d="M290.851,393.686l4.486,11.878c0,0,5.656-6.949,21.233-5.893l-0.731-13.036
					C315.839,386.635,300.465,383.445,290.851,393.686z"/>
			</g>
		</g>
		<g id="Top_00000134232108582163524200000004304386189245255096_">
			<path id="Hair_00000045604651003692073740000004245172299493184183_" style="fill:#263238;" d="M270.068,105.145
				c-0.807-9.361,16.796-20.776,34.646-10.445c5.182,2.999,10.446,7.205,12.277,13.152c1.917,6.227-0.602,13.757-5.128,18.195
				c-1.97,1.932-4.266,3.494-6.549,5.046c-3.178,2.16-6.355,4.32-9.533,6.479c-1.9,1.291-3.805,2.587-5.529,4.106
				c-2.071,1.825-3.864,3.965-5.299,6.323c-0.301,0.494-0.675,1.056-1.252,1.098c-0.336,0.024-0.653-0.142-0.948-0.306
				c-5.113-2.842-9.916-6.35-13.715-10.798c-3.476-4.069-6.096-8.97-7.081-14.259C260.681,116.883,261.103,105.918,270.068,105.145z
				"/>
			<path style="fill:#263238;" d="M276.053,107.987c0.74-1.096,1.206-2.387,1.279-3.707c0.026-0.477-0.684-4.531-0.678-4.534
				c1.98-1.07,3.499-2.962,4.114-5.127c0.646-2.273-0.029-4.754-1.733-6.414c-0.074,1.149-0.721,2.248-1.69,2.871
				c-0.029-2.108-1.493-4.058-3.416-4.921c-1.924-0.863-4.211-0.717-6.141,0.133c-1.93,0.85-3.522,2.349-4.745,4.067
				c-4.633-1.33-10.2,0.141-12.032,5.122c-0.842,2.29-0.381,5.079,1.355,6.794c-2.659,0.6-4.606,3.433-4.213,6.131
				c0.393,2.697,3.068,4.856,5.787,4.673c-0.454,2.122-3.653,2.573-4.362,2.726c1.366,1.34,4.377,1.356,6.834,0.066
				c-0.573,0.301,0.85,2.373,1.094,2.609c0.787,0.759,1.476,0.901,2.497,0.961c2.688,0.158,5.073,0.117,7.368-1.53
				c2.235-1.605,3.671-4.271,3.781-7.02c-0.005,0.12,2.185-0.581,2.37-0.673c0.725-0.362,1.418-0.862,1.952-1.475
				C275.683,108.5,275.876,108.249,276.053,107.987z"/>
			<g>
				<path style="fill:#FFA8A7;" d="M323.639,161.252c4.149,2.796,8.979,7.476,14.219,12.079c4.47,3.926,8.868,8.135,8.868,8.135
					c1.642-5.99,5.122-18.726,5.726-21.258c1.051-3.693,2.536-10.165,2.828-11.008c2.008-5.802,6.433-10.267,10.953-14.226
					c0.774-0.679,1.557-1.347,2.342-2.014c0.38-0.324,0.776-0.634,1.109-1.002c0.316-0.349,0.596-0.632,1.133-0.374
					c0.379,0.183,0.624,0.564,0.779,0.955c0.513,1.298,0.214,2.796-0.417,4.041c-0.63,1.245-1.564,2.306-2.397,3.426
					c-0.639,0.858,0.58,0.86,1.156,0.776c2.827-0.414,6.307-3.322,8.475-5.104c1.423-1.17,2.626-2.6,4.222-3.555
					c0.981-0.587,2.116-0.976,3.257-0.893c0.774,0.057,1.465,0.374,1.298,1.329c-0.104,0.595-0.519,1.078-0.879,1.563
					c-0.741,0.999-1.391,1.903-1.202,3.21c0.119,0.822,0.403,1.638,0.308,2.463c-0.121,1.05-0.835,1.943-1.07,2.973
					c-0.209,0.918,0.116,1.809,0.01,2.697c-0.114,0.95-1.036,2.065-1.567,2.833c-1.268,1.833-2.82,3.463-4.52,4.9
					c-2.583,2.183-3.299,2.709-6.279,4.309c-1.63,0.876-4.358,0.998-5.358,3.923c-0.999,2.925-0.999,5.943-1.471,17.006
					c-0.351,8.223,1.08,15.389-7.03,27.623c-1.433,2.161-4.384,3.99-9.759,0.385c-4.126-2.767-5.845-3.73-7.98-5.177
					c-2.93-1.986-21.541-15.364-21.541-15.364c-9.3-10.093-10.212-19.228-10.917-28.995
					C307.934,156.909,318.242,157.615,323.639,161.252z"/>
				<path style="fill:#F28F8F;" d="M346.726,181.465c-1.756,5.662-1.633,11.8-0.703,14.665c-3.55-5.112-2.14-11.57-1.141-16.406
					L346.726,181.465z"/>
				<path style="fill:#F28F8F;" d="M367.875,144.741c-0.556,3.422-3.081,7.664-4.749,9.073c0,0,3.001-0.9,4.2-3.273
					C368.64,147.942,368.289,145.999,367.875,144.741z"/>
			</g>
			<g>
				<path style="fill:#BA68C8;" d="M244.785,250.705c0,0,4.234-23.972,15.062-53.411c10.828-29.439,38.964-42.098,38.964-42.098
					l6.706,1.306c0,0-28.441,16.232-39.241,42.113c-10.8,25.882-14.869,47.646-14.869,47.646L244.785,250.705z"/>
				<path style="opacity:0.4;fill:#FFFFFF;" d="M244.785,250.705c0,0,4.234-23.972,15.062-53.411
					c10.828-29.439,38.964-42.098,38.964-42.098l6.706,1.306c0,0-28.441,16.232-39.241,42.113
					c-10.8,25.882-14.869,47.646-14.869,47.646L244.785,250.705z"/>
			</g>
			<path style="fill:#F5F5F5;" d="M255.878,241.066c2.138-11.204,4.057-19.795,3.965-22.255c-0.401-10.677-3.59-24.636-4.686-30.811
				c-2.386-13.448,4.276-25.662,7.348-28.407c0,0,3.256-0.859,7.138-1.895c2.333-0.623,6.113-1.215,9.676-1.817
				c7.913-1.337,11.222-1.34,14.2-1.119c1.468,0.109,8.438,1.117,8.438,1.117c2.113,0.432,5.969,1.025,5.976,1.03
				c0,0,4.902,3.786,9.608,11.685c3.592,6.028,5.678,11.095,6.64,24.188c1.225,16.668,2.148,35.658,2.465,47.306
				C313.053,248.962,274.008,250.984,255.878,241.066z"/>
			<g id="Head_00000032606239644344783570000003555830658184611226_">
				<g>
					<path style="fill:#FFA8A7;" d="M275.829,151.656c0.025-2.694,0.115-12.73,0.115-12.73c-0.029,0.831-4.497,3.997-8.415,0.013
						c-4.022-4.09-4.518-8.505-2.585-11.56c2.136-3.376,7.441-3.609,9.956,1.445c1.626,1.764,4.231-0.629,2.605-5.624
						c0.045-3.584,4.881-7.856,1.666-13.678c9.636-7.521,21.258-7.952,27.857-3.105c1.315,3.049,3.61,10.586,3.975,19.347
						c0.49,11.783-2.216,17.695-5.824,19.962c-2.419,1.52-4.679,2.011-9.107,1.984c0,0-0.024,2.956-0.058,4.724
						c-0.034,1.769,0.718,2.176,2.561,2.638c1.237,0.31,4.357,0.995,4.357,0.995s4.534,6.529-6.939,8.09
						c-18.289,2.488-26.35-6.46-26.35-6.46s0.766-0.276,3.627-1.076C275.859,155.898,275.805,154.35,275.829,151.656z"/>
					<g id="XMLID_00000050662180390174883780000011695092529716733871_">
						<path id="XMLID_00000159467206695797683550000005916082638828842125_" style="fill:#F28F8F;" d="M296.072,147.71
							c-7.955-0.188-15.708-2.191-17.758-5.653c0,0,0.274,3.931,3.622,5.565c4.693,2.291,14.108,2.878,14.108,2.878L296.072,147.71z
							"/>
					</g>
					<g>
						<g id="XMLID_00000150103751408895994020000012139788151041430935_">
							<path id="XMLID_00000096042854384551876990000000069417614598191751_" style="fill:#B16668;" d="M291.347,134.086l7.12,1.68
								c-0.424,2.033-2.361,3.305-4.326,2.841C292.174,138.143,290.924,136.119,291.347,134.086z"/>
							<path style="fill:#F28F8F;" d="M291.913,135.658c1.942-0.198,3.7,1.02,4.253,2.818c-0.627,0.233-1.323,0.297-2.025,0.132
								c-1.411-0.333-2.441-1.473-2.761-2.84C291.555,135.725,291.728,135.677,291.913,135.658z"/>
						</g>
						<path id="XMLID_00000023275382831144578340000017597680916461932714_" style="fill:#263238;" d="M305.617,114.603
							l-4.926-0.824c0.177-1.38,1.425-2.313,2.786-2.086C304.836,111.921,305.795,113.224,305.617,114.603z"/>
						<path id="XMLID_00000175324845364876598590000004153411317084693653_" style="fill:#263238;" d="M285.414,115.285l4.892-1.285
							c-0.307-1.375-1.65-2.202-3.002-1.847C285.954,112.508,285.107,113.911,285.414,115.285z"/>
						<path id="XMLID_00000178205765843232556300000011330612046989208205_" style="fill:#263238;" d="M287.081,122.769
							c0,1.138,0.928-0.152,2.081-0.121c1.152,0.031,2.091,1.368,2.09,0.231c0-1.139-0.934-2.085-2.086-2.115
							C288.014,120.733,287.08,121.631,287.081,122.769z"/>
						<path id="XMLID_00000017504164168271057450000004992536496378115258_" style="fill:#263238;" d="M302.261,122.881
							c0.274,1.104,0.865-0.371,1.991-0.618c1.126-0.248,2.359,0.825,2.085-0.279c-0.274-1.105-1.408-1.799-2.533-1.552
							C302.677,120.681,301.986,121.777,302.261,122.881z"/>
					</g>
					<g>
						<g>
							<path style="fill:#455A64;" d="M280.05,117.304l-11.971,7.783c1.325-0.273,2.206-0.299,3.954,0.551l8.623-5.523
								L280.05,117.304z"/>
						</g>
						<path style="fill:#455A64;" d="M312.608,114.127c-3.149-0.142-7.393,0.049-9.921,1.059c-2.831,1.145-3.799,2.236-5.391,2.385
							c-1.706,0.147-2.841-0.76-5.956-1.388c-2.49-0.491-6.838,0.088-9.935,0.692c-1.074,0.103-2.032,0.502-1.961,1.928
							c0.206,1.332,1.089,1.479,1.382,2.549c0.751,3.712,2.036,8.315,6.947,8.173c10.135-0.154,6.235-9.745,9.977-9.531
							c1.36,0.199,1.332,2.799,2.281,4.583c0.36,0.677,0.805,1.357,1.394,1.913c3.525,3.235,9.645,0.837,10.367-2.693
							c0.721-1.776,0.387-4.522,1.161-6.074C313.688,116.982,314.182,114.397,312.608,114.127z M293.972,123.226
							c-0.126,0.777-0.436,1.908-1.231,2.892c-0.868,1.16-2.443,1.829-4.056,1.941c-2.18,0.151-4.43-0.707-5.143-2.781
							c-0.089-0.193-0.169-0.377-0.238-0.562c-0.543-1.536-1.35-4.827-0.577-5.848c1.407-1.719,8.661-2.129,10.954,0.158
							C294.315,119.827,294.233,121.653,293.972,123.226z M311.15,121.122c-0.17,1.102-0.545,3.489-2.556,4.701
							c-2.658,1.588-6.597,0.449-7.359-2.191c-2.042-5.5,0.056-6.964,5.612-7.928C311.452,115.364,311.789,116.536,311.15,121.122z"
							/>
					</g>
					<path style="fill:#F28F8F;" d="M304.085,128.152l-6.323,3.634l-1.849-10.031c0.192-0.627,0.407-1.128,0.674-1.336
						L304.085,128.152z"/>
				</g>
			</g>
			<g>
				<g>
					<path style="fill:#BA68C8;" d="M243.683,252.683c-4.534,11.613-10.684,32.418-7.77,35.588
						c3.856,4.195,31.605,15.545,35.138,15.697c3.533,0.152,11.524-6.05,12.377-11.362c0.853-5.312-2.721-35.973-2.721-35.973
						l-29.3-10.373C248.988,247.118,245.149,248.928,243.683,252.683z"/>
					<path style="opacity:0.2;" d="M283.428,292.607c-0.72,4.484-6.518,9.585-10.435,10.981c-7.792,0.865-3.507-23.377-1.399-41.474
						l9.113-5.48C280.707,256.634,284.281,287.295,283.428,292.607z"/>
					<path style="opacity:0.2;fill:#FFFFFF;" d="M252.988,268.149c-10.163-3.125-10.163-11.444-9.63-14.619
						c0.121-0.316,0.24-0.618,0.358-0.922c1.488-3.703,5.288-5.497,7.691-6.347l29.3,10.373l-9.113,5.48
						C268.809,266.405,263.16,271.277,252.988,268.149z"/>
				</g>
				<path style="fill:#FFFFFF;" d="M251.954,264.144c0.033,1.199,1.031,2.144,2.23,2.112c1.199-0.033,2.145-1.031,2.112-2.23
					c-0.033-1.199-1.031-2.144-2.23-2.112C252.867,261.947,251.921,262.945,251.954,264.144z"/>
				<g>
					<path style="fill:#BA68C8;" d="M295.738,201.095c5.665-26.923,3.088-46.056,3.088-46.056l6.678,1.118
						c0,0,3.106,23.571-2.704,45.285c-7.836,29.286-22.094,55.192-22.094,55.192l-9.113,5.48
						C271.594,262.114,291.11,223.092,295.738,201.095z"/>
					<path style="opacity:0.4;fill:#FFFFFF;" d="M295.738,201.095c5.665-26.923,3.088-46.056,3.088-46.056l6.678,1.118
						c0,0,3.106,23.571-2.704,45.285c-7.836,29.286-22.094,55.192-22.094,55.192l-9.113,5.48
						C271.594,262.114,291.11,223.092,295.738,201.095z"/>
				</g>
			</g>
			<g id="Arm_14_">
				<path id="XMLID_28576_" style="fill:#FFA8A7;" d="M259.093,264.231c-2.353-2.548-4.06-4.405-4.341-5.47
					c-0.333-1.743,3.774,1.469,5.243,1.874c1.468,0.404,2.19,0.414,3.643-0.126c0.753-0.28,1.679-1.495,1.307-2.22
					c-0.08-0.154-0.237-0.199-0.38-0.283c-2.257-1.321-4.082-3.052-6.128-4.775c-2.202-1.854-3.143-2.495-5.408-3.685
					c-1.758-0.924-4.549-3.034-5.814-6.046c-4.203-10.006-5.938-18.339-8.721-28.375c5.759-6.625,17.541-18.03,20.978-22.016
					c3.808-4.417,8.465-10.454,8.887-15.544c0.445-5.366-1.755-16.35-5.852-17.972c-9.295,2.499-10.913,5.388-16.81,12.023
					c-3.701,4.164-20.904,23.934-25.987,30.895c-3.681,5.042-5.651,7.353-2.985,14.18c2.712,6.944,4.344,8.87,7.342,14.861
					c2.1,4.196,3.297,5.949,6.821,12.747c0.675,1.303,1.707,3.381,2.9,5.833c1.193,2.452,2.512,5.978,3.477,8.537
					c0.965,2.56,2.258,5.51,3.556,7.632c1.299,2.122,5.225,6.927,7.393,7.939c0.762,0.356,1.502,0.25,2.227,0.618
					c0.725,0.368,1.234,0.99,1.994,1.303c1.159,0.475,1.841-0.012,3.145-0.605c0.511-0.232,1.073-0.39,1.634-0.28
					c0.561,0.11,0.975,0.458,1.512,0.674c1.5,0.603,3.403,0.437,5.025-0.982c1.647,0.557,2.462,0.844,4.081,1.41
					c0.269,0.094,0.592,0.126,0.795,0.015c0.203-0.111,0.236-0.263,0.277-0.412c0.233-0.837,0.171-1.571-0.218-2.366
					c-0.756-1.541-1.527-2.199-2.986-3.321C264.242,269.172,260.293,265.531,259.093,264.231z"/>
			</g>
		</g>
	</g>
</g>
</svg>
